<?xml version='1.0' encoding='iso-8859-1'?>
<svg version="1.1" xmlns="http://www.w3.org/2000/svg" viewBox="0 0 26 26" xmlns:xlink="http://www.w3.org/1999/xlink" enable-background="new 0 0 26 26">
  <g>
    <path d="m13,0c-7.2,0-13,5.8-13,13s5.8,13 13,13 13-5.8 13-13-5.8-13-13-13zm0,22c-5,0-9-4-9-9s4-9 9-9 9,4 9,9-4,9-9,9z"/>
    <path d="m17,11h-1.5c-0.3,0-0.5-0.2-0.5-0.5v-1.5c0-0.6-0.4-1-1-1h-2c-0.6,0-1,0.4-1,1v1.5c0,0.3-0.2,0.5-0.5,0.5h-1.5c-0.6,0-1,0.4-1,1v2c0,0.6 0.4,1 1,1h1.5c0.3,0 0.5,0.2 0.5,0.5v1.5c0,0.6 0.4,1 1,1h2c0.6,0 1-0.4 1-1v-1.5c0-0.3 0.2-0.5 0.5-0.5h1.5c0.6,0 1-0.4 1-1v-2c0-0.6-0.4-1-1-1z"/>
  </g>
</svg>
