<?xml version='1.0' encoding='iso-8859-1'?>
<svg version="1.1" xmlns="http://www.w3.org/2000/svg" viewBox="0 0 23.9 23.9" xmlns:xlink="http://www.w3.org/1999/xlink" enable-background="new 0 0 23.9 23.9">
  <g>
    <path d="m15.75,10h-1.5c-0.3,0-0.5-0.2-0.5-0.5v-2.5c0-0.6-0.4-1-1-1h-2c-0.6,0-1,0.4-1,1v6c0,0.6 0.4,1 1,1h5c0.6,0 1-0.4 1-1v-2c0-0.6-0.4-1-1-1z"/>
    <path d="m23.75,12c0-2.1-0.5-4.1-1.5-5.8-0.1-0.2-0.1-0.4 0.1-0.6l1.1-1.1c0.2-0.2 0.3-0.5 0.3-0.7s-0.1-0.5-0.3-0.7l-2.8-2.8c-0.2-0.2-0.5-0.3-0.7-0.3s-0.5,0.1-0.7,0.3l-1.1,1.1 0,0 0,0c-0.2,0.1-0.4,0.2-0.5,0.1l0,0c-1.7-0.9-3.7-1.5-5.7-1.5s-4,0.5-5.7,1.5l0,0c-0.2,0.1-0.4,0.1-0.5-0.1l0,0 0,0-1.1-1.1c-0.2-0.2-0.5-0.3-0.7-0.3s-0.5,0.1-0.7,0.3l-2.8,2.8c-0.2,0.2-0.3,0.5-0.3,0.7s0.1,0.5 0.3,0.7l1.1,1.1c0.2,0.2 0.2,0.4 0.1,0.6-0.9,1.7-1.5,3.7-1.5,5.8 0,3.2 1.2,6.1 3.3,8.2 0.1,0.1 0.2,0.3 0.1,0.4l-.4,1.7c-0.1,0.5 0.2,1.1 0.8,1.2l2,.4c0.1,0 0.1,0 0.2,0 0.4,0 0.8-0.2 0.9-0.6 0.1-0.3 0.4-0.4 0.7-0.3 1.4,0.6 2.9,0.9 4.5,0.9s3.1-0.3 4.5-0.9c0.3-0.1 0.5,0 0.7,0.3 0.2,0.4 0.5,0.6 0.9,0.6 0.1,0 0.1,0 0.2,0l2-.4c0.5-0.1 0.9-0.6 0.8-1.2l-.4-1.7c0-0.2 0-0.3 0.1-0.4 1.5-2.1 2.7-5 2.7-8.2zm-12,8c-4.4,0-8-3.6-8-8s3.6-8 8-8 8,3.6 8,8-3.6,8-8,8z"/>
  </g>
</svg>
