<?xml version='1.0' encoding='iso-8859-1'?>
<svg version="1.1" xmlns="http://www.w3.org/2000/svg" viewBox="0 0 26 26" xmlns:xlink="http://www.w3.org/1999/xlink" enable-background="new 0 0 26 26">
  <path d="m23.501,19.2l-1.5-1.3c-0.4-0.3-1.1-0.3-1.4,0.1-1.3,1.6-3.1,2.7-5,3.3-0.3,0.1-0.5-0.1-0.6-0.3v-0.1-3.4c0-0.3 0.2-0.5 0.5-0.5h0.5c0.6,0 1-0.4 1-1v-2c0-0.6-0.4-1-1-1h-0.5c-0.3,0-0.5-0.2-0.5-0.5v-0.5c0-0.2 0.1-0.4 0.3-0.5 2.2-0.9 3.7-3 3.7-5.5 0-3.3-2.7-6-6-6s-6,2.7-6,6c0,2.5 1.5,4.6 3.7,5.5 0.2,0.1 0.3,0.3 0.3,0.5v0.5c0,0.3-0.2,0.5-0.5,0.5h-0.6c-0.6,0-1,0.4-1,1v2c0,0.6 0.4,1 1,1h0.5c0.3,0 0.5,0.2 0.5,0.5v3.4 0.1c-0.1,0.3-0.3,0.4-0.6,0.3-2-0.5-3.7-1.7-5-3.3-0.3-0.4-1-0.5-1.4-0.1l-1.5,1.3c-0.4,0.3-0.5,1-0.1,1.4 2.1,2.5 4.9,4.2 8.1,4.9l2.5,.5c0.1,0 0.1,0 0.2,0s0.1,0 0.2,0l2.5-.5c3.2-0.6 6.1-2.3 8.1-4.9 0.1-0.4 0.1-1-0.4-1.4zm-10.6-11.2c-1.1,0-2-0.9-2-2s0.9-2 2-2 2,0.9 2,2-0.9,2-2,2z"/>
</svg>
