<?xml version='1.0' encoding='iso-8859-1'?>
<svg version="1.1" xmlns="http://www.w3.org/2000/svg" viewBox="0 0 26 26" xmlns:xlink="http://www.w3.org/1999/xlink" enable-background="new 0 0 26 26">
  <g>
    <path d="m13,0c-7.2,0-13,5.8-13,13s5.8,13 13,13 13-5.8 13-13-5.8-13-13-13zm0,22c-5,0-9-4-9-9s4-9 9-9 9,4 9,9-4,9-9,9z"/>
    <path d="m16.7,10.4c0.2-0.2 0.3-0.4 0.3-0.7 0-0.2 0-0.4-0.1-0.5l-1-1.7c-0.2-0.3-0.5-0.5-0.9-0.5-0.2,0-0.3,0-0.5,0.1l-.1,.1-6,5c-0.2,0.2-0.4,0.5-0.4,0.8s0.1,0.6 0.4,0.8l6,5 .1,.1c0.2,0.1 0.3,0.1 0.5,0.1 0.3,0 0.7-0.2 0.9-0.5l1-1.7c0.1-0.1 0.1-0.3 0.1-0.5 0-0.3-0.1-0.5-0.3-0.7l-2.1-1.8c-0.5-0.4-0.5-1.1 0-1.5l2.1-1.9z"/>
  </g>
</svg>
