<?xml version='1.0' encoding='iso-8859-1'?>
<svg version="1.1" xmlns="http://www.w3.org/2000/svg" viewBox="0 0 26 26" xmlns:xlink="http://www.w3.org/1999/xlink" enable-background="new 0 0 26 26">
  <path d="m13,0c-7.2,0-13,5.8-13,13s5.8,13 13,13 13-5.8 13-13-5.8-13-13-13zm6.1,15h2c0.3,0 0.6,0.3 0.5,0.6-0.2,0.7-0.5,1.3-0.8,1.9-0.2,0.3-0.5,0.3-0.8,0.1-0.6-0.6-1-1.2-1.4-1.9-0.1-0.3 0.1-0.7 0.5-0.7zm-.5-4.7c0.3-0.7 0.8-1.4 1.4-1.9 0.2-0.2 0.6-0.2 0.8,0.1 0.4,0.6 0.6,1.2 0.8,1.9 0.1,0.3-0.2,0.6-0.5,0.6h-2c-0.4,0-0.6-0.4-0.5-0.7zm-1.6-4.6c-1.3,1.4-2.3,3.1-2.7,4.9-0.1,0.2-0.2,0.4-0.5,0.4h-1.6c-0.2,0-0.4-0.2-0.5-0.4-0.4-1.9-1.4-3.6-2.7-4.9-0.2-0.3-0.2-0.7 0.1-0.8 1.2-0.6 2.5-0.9 3.8-0.9 1.4,0 2.7,0.3 3.8,0.9 0.5,0.1 0.5,0.5 0.3,0.8zm-11.8,11.9c-0.5-0.8-0.8-1.6-1-2.6h2.7c0.4,0 0.6,0.4 0.5,0.7-0.3,0.7-0.8,1.4-1.4,1.9-0.2,0.3-0.6,0.2-0.8,0zm-.8-7.2c0.2-0.7 0.5-1.3 0.8-1.9 0.2-0.3 0.5-0.3 0.8-0.1 0.6,0.6 1,1.2 1.4,1.9 0.2,0.3-0.1,0.7-0.5,0.7h-2c-0.3,0-0.6-0.3-0.5-0.6zm4.6,9.9c1.3-1.4 2.3-3.1 2.7-4.9 0.1-0.2 0.2-0.4 0.5-0.4h1.6c0.2,0 0.4,0.2 0.5,0.4 0.4,1.9 1.4,3.6 2.7,4.9 0.2,0.3 0.2,0.7-0.1,0.8-1.2,0.6-2.5,0.9-3.8,0.9-1.4,0-2.7-0.3-3.8-0.9-0.5-0.1-0.5-0.5-0.3-0.8z"/>
</svg>
