<?xml version='1.0' encoding='iso-8859-1'?>
<svg version="1.1" xmlns="http://www.w3.org/2000/svg" viewBox="0 0 26 26" xmlns:xlink="http://www.w3.org/1999/xlink" enable-background="new 0 0 26 26">
  <path d="m25,18c-1.7,0-3-1.3-3-3v-4c0-4.1-2.8-7.6-6.6-8.7-0.2-0.1-0.4-0.2-0.4-0.5v-0.8c0-0.6-0.4-1-1-1h-2c-0.6,0-1,0.4-1,1v0.8c0,0.2-0.2,0.4-0.4,0.5-3.8,1-6.6,4.5-6.6,8.7v4c0,1.7-1.4,3-3,3-0.5,0-1,0.5-1,1v2c0,0.6 0.4,1 1,1h9.5c0.3,0 0.5,0.2 0.5,0.5v1.5c0,1.1 0.9,2 2,2s2-0.9 2-2v-1.5c0-0.3 0.2-0.5 0.5-0.5h9.5c0.6,0 1-0.4 1-1v-2c0-0.5-0.4-1-1-1zm-6.9,0c-0.1,0-0.1,0-0.2,0h-9.9c-0.1,0-0.1,0-0.2,0-0.3-0.1-0.4-0.4-0.3-0.6 0.3-0.7 0.4-1.5 0.4-2.3v-4c0-2.8 2.2-5 5-5s5,2.2 5,5v4c0,0.8 0.1,1.6 0.4,2.3 0.2,0.2 0.1,0.5-0.2,0.6z"/>
</svg>
