<?xml version='1.0' encoding='iso-8859-1'?>
<svg version="1.1" xmlns="http://www.w3.org/2000/svg" viewBox="0 0 26 26" xmlns:xlink="http://www.w3.org/1999/xlink" enable-background="new 0 0 26 26">
  <path d="m22.074,0h-9-9c-0.6,0-1,0.4-1,1v24c0,0.6 0.4,1 1,1 0.2,0 0.3,0 0.4-0.1l8.3-4.2c0.1,0 0.1-0.1 0.2-0.1s0.2,0 0.2,0.1l8.3,4.2c0.1,0.1 0.3,0.1 0.4,0.1 0.6,0 1-0.4 1-1v-24c0.2-0.6-0.2-1-0.8-1zm-3,19.3c0,0.4-0.4,0.6-0.7,0.4l-5.1-2.5c-0.1,0-0.1-0.1-0.2-0.1s-0.2,0-0.2,0.1l-5.1,2.5c-0.3,0.2-0.7-0.1-0.7-0.4v-14.8c0-0.3 0.2-0.5 0.5-0.5h5.5 5.5c0.3,0 0.5,0.2 0.5,0.5l-0,14.8z"/>
</svg>
