<?xml version='1.0' encoding='iso-8859-1'?>
<svg version="1.1" xmlns="http://www.w3.org/2000/svg" viewBox="0 0 26 26" xmlns:xlink="http://www.w3.org/1999/xlink" enable-background="new 0 0 26 26">
  <path d="M25,6h-4.5C20.2,6,20,5.8,20,5.5V4c0-2.2-1.8-4-4-4h-6C7.8,0,6,1.8,6,4v1.5C6,5.8,5.8,6,5.5,6H1C0.4,6,0,6.4,0,7v18  c0,0.6,0.4,1,1,1h24c0.6,0,1-0.4,1-1V7C26,6.4,25.6,6,25,6z M10.5,4h5C15.8,4,16,4.2,16,4.5v1C16,5.8,15.8,6,15.5,6h-5  C10.2,6,10,5.8,10,5.5v-1C10,4.2,10.2,4,10.5,4z M22,10.5v1c0,0.3-0.2,0.5-0.5,0.5h-17C4.2,12,4,11.8,4,11.5v-1  C4,10.2,4.2,10,4.5,10h17C21.8,10,22,10.2,22,10.5z M4,21.5v-5C4,16.2,4.2,16,4.5,16h17c0.3,0,0.5,0.2,0.5,0.5v5  c0,0.3-0.2,0.5-0.5,0.5h-17C4.2,22,4,21.8,4,21.5z"/>
</svg>
