<?xml version='1.0' encoding='iso-8859-1'?>
<svg version="1.1" xmlns="http://www.w3.org/2000/svg" viewBox="0 0 26 26" xmlns:xlink="http://www.w3.org/1999/xlink" enable-background="new 0 0 26 26">
  <g>
    <path d="m13,0c-7.2,0-13,5.8-13,13s5.8,13 13,13 13-5.8 13-13-5.8-13-13-13zm0,22c-5,0-9-4-9-9s4-9 9-9 9,4 9,9-4,9-9,9z"/>
    <path d="m17.7,11.1c0.2-0.2 0.3-0.5 0.3-0.7s-0.1-0.5-0.3-0.7l-1.4-1.4c-0.2-0.2-0.5-0.3-0.7-0.3s-0.5,0.1-0.7,0.3l-1.5,1.5c-0.2,0.2-0.5,0.2-0.7,0l-1.5-1.5c-0.2-0.2-0.5-0.3-0.7-0.3s-0.5,0.1-0.7,0.3l-1.4,1.4c-0.2,0.2-0.3,0.5-0.3,0.7s0.1,0.5 0.3,0.7l1.5,1.5c0.2,0.2 0.2,0.5 0,0.7l-1.5,1.5c-0.2,0.2-0.3,0.5-0.3,0.7s0.1,0.5 0.3,0.7l1.4,1.4c0.2,0.2 0.5,0.3 0.7,0.3 0.3,0 0.5-0.1 0.7-0.3l1.5-1.5c0.2-0.2 0.5-0.2 0.7,0l1.5,1.5c0.2,0.2 0.5,0.3 0.7,0.3 0.3,0 0.5-0.1 0.7-0.3l1.4-1.4c0.2-0.2 0.3-0.5 0.3-0.7s-0.1-0.5-0.3-0.7l-1.5-1.5c-0.2-0.2-0.2-0.5 0-0.7l1.5-1.5z"/>
  </g>
</svg>
