<?xml version='1.0' encoding='iso-8859-1'?>
<svg version="1.1" xmlns="http://www.w3.org/2000/svg" viewBox="0 0 26.1 26.1" xmlns:xlink="http://www.w3.org/1999/xlink" enable-background="new 0 0 26.1 26.1">
  <path d="M25,6h-7V1c0-0.6-0.4-1-1-1H1C0.4,0,0,0.4,0,1v15v3c0,0.6,0.4,1,1,1c0.2,0,0.4-0.1,0.5-0.1l6.4-3.8H8v5c0,0.6,0.4,1,1,1h8.9  c0.1,0,0.2,0,0.3,0.1l6.4,3.8c0.1,0.1,0.3,0.1,0.5,0.1c0.6,0,1-0.4,1-1v-3v-15C26,6.4,25.6,6,25,6z M8,7v4.5C8,11.8,7.8,12,7.5,12  H7.2c-0.2,0-0.4,0-0.5,0.1L6,12.5l-1.2,0.7c-0.3,0.2-0.8,0-0.8-0.4V4.5C4,4.2,4.2,4,4.5,4h9C13.8,4,14,4.2,14,4.5v1  C14,5.8,13.8,6,13.5,6H9C8.4,6,8,6.4,8,7z M22,18.8c0,0.4-0.4,0.6-0.8,0.4L20,18.5l-0.7-0.4C19.1,18,19,18,18.8,18H18h-5.5  c-0.3,0-0.5-0.2-0.5-0.5v-7c0-0.3,0.2-0.5,0.5-0.5h9c0.3,0,0.5,0.2,0.5,0.5V18.8z"/>
</svg>
