<?xml version='1.0' encoding='iso-8859-1'?>
<svg version="1.1" xmlns="http://www.w3.org/2000/svg" viewBox="0 0 26 26" xmlns:xlink="http://www.w3.org/1999/xlink" enable-background="new 0 0 26 26">
  <g>
    <path d="m23.096,7.3c-0.1-0.2-0.1-0.4 0.1-0.6l.5-.5c0.4-0.4 0.4-1 0-1.4l-1.4-1.4c-0.4-0.4-1-0.4-1.4,0l-.5,.5c-0.2,0.2-0.4,0.2-0.6,0.1-1-0.7-2.1-1.2-3.3-1.5-0.2-0.1-0.4-0.3-0.4-0.5v-1c0-0.6-0.4-1-1-1h-4c-0.6,0-1,0.4-1,1v1c0,0.2-0.1,0.4-0.4,0.5-5,1.4-8.7,6-8.7,11.5 0,6.6 5.4,12 12,12s12-5.4 12-12c0.1-2.6-0.7-4.8-1.9-6.7zm-10,14.6c-4.4,0-8-3.6-8-8s3.6-8 8-8 8,3.6 8,8-3.6,8-8,8z"/>
    <path d="m14.096,7.9h-2c-0.6,0-1,0.4-1,1v6c0,0.6 0.4,1 1,1h2c0.6,0 1-0.4 1-1v-6c0-0.6-0.4-1-1-1z"/>
  </g>
</svg>
