<?xml version='1.0' encoding='iso-8859-1'?>
<svg version="1.1" xmlns="http://www.w3.org/2000/svg" viewBox="0 0 26 26" xmlns:xlink="http://www.w3.org/1999/xlink" enable-background="new 0 0 26 26">
  <path d="m15,6.95c1.5,0 2.8,1.2 3,2.7 0.1,1.5 1,2.9 2.4,3.6 1,0.5 1.6,1.5 1.6,2.7 0,1.7-1.3,3-3,3h-13c-1.1,0-2-0.9-2-2 0-0.7 0.4-1.3 0.9-1.7 1.2-0.7 2-2 2.1-3.4 0-0.5 0.4-0.9 0.9-0.9 0.1,0 0.3,0 0.4,0 1.7,0 3.2-0.9 4-2.4 0.6-1 1.6-1.6 2.7-1.6m0-4c-2.7,0-5,1.5-6.2,3.8-0.1,0.2-0.3,0.3-0.4,0.3 0,0 0,0-0.1,0s-0.2,0-0.3,0c-2.6,0-4.7,2-5,4.5 0,0.2-0.1,0.3-0.2,0.4-1.7,1.1-2.8,2.9-2.8,5.1 0,3.3 2.7,6 6,6h13c3.9,0 7-3.1 7-7 0-2.7-1.5-5-3.8-6.2-0.2-0.1-0.3-0.2-0.3-0.4-0.2-3.7-3.2-6.5-6.9-6.5z"/>
</svg>
