<?xml version='1.0' encoding='iso-8859-1'?>
<svg version="1.1" xmlns="http://www.w3.org/2000/svg" viewBox="0 0 26.1 26.1" xmlns:xlink="http://www.w3.org/1999/xlink" enable-background="new 0 0 26.1 26.1">
  <g>
    <path d="m17.4,17.9c-0.4-0.4-1-0.4-1.4,0-0.2,0.2-0.5,0.2-0.7,0-0.1-0.1-0.1-0.2-0.1-0.4v-6.5c0-0.6-0.4-1-1-1h-2c-0.6,0-1,0.4-1,1v6.6c0,0.1-0.1,0.3-0.1,0.4-0.2,0.2-0.5,0.2-0.7,0-0.4-0.4-1-0.4-1.4,0l-1.4,1.4c-0.2,0.2-0.3,0.4-0.3,0.7s0.1,0.5 0.3,0.7l.1,.1 4.9,4.9c0.2,0.2 0.5,0.3 0.7,0.3s0.5-0.1 0.7-0.3l4.9-4.9 .1-.1c0.2-0.2 0.3-0.4 0.3-0.7s-0.1-0.5-0.3-0.7l-1.6-1.5z"/>
    <path d="m17.1,0c-3.7,0-6.9,2.2-8.3,5.4-0.7-0.3-1.5-0.4-2.3-0.4-3.6,0-6.5,2.9-6.5,6.5 0,3.3 2.4,6 5.5,6.4h0.1c0.1,0 0.3,0 0.4-0.2l1.3-1.3c0.4-0.4 0.8-0.6 1.3-0.8 0.2-0.1 0.4-0.3 0.4-0.5v-0.7c0-0.3-0.2-0.5-0.5-0.5h-2c-1.4,0-2.5-1.1-2.5-2.5s1.1-2.5 2.5-2.5c0.3,0 0.6,0 0.9,0.2 0.5,0.2 0.9,0.3 1.4,0.3 1.5,0 3-0.9 3.7-2.4 0.8-1.8 2.6-3 4.6-3 2.8,0 5,2.2 5,5 0,2.6-2,4.7-4.5,5-0.2,0-0.4,0.1-0.5,0.3 0,0.1 0,0.1 0,0.2v0.7c0,0.2 0.2,0.4 0.4,0.5 0.5,0.1 1,0.4 1.3,0.8l.9,.9c0.1,0.1 0.3,0.2 0.5,0.1 3.5-1.3 5.9-4.6 5.9-8.4 0-5.1-4-9.1-9-9.1z"/>
  </g>
</svg>
