<?xml version='1.0' encoding='iso-8859-1'?>
<svg version="1.1" xmlns="http://www.w3.org/2000/svg" viewBox="0 0 26 26" xmlns:xlink="http://www.w3.org/1999/xlink" enable-background="new 0 0 26 26">
  <g>
    <path d="m21.4,13.651c-0.2-0.1-0.4-0.3-0.4-0.5s0-0.4 0-0.6c0-3.9-3.1-7-7-7-2.7,0-5.2,1.6-6.4,4.1-0.1,0.1-0.2,0.2-0.3,0.3-1.9,0.7-3.4,2.2-4,4.1 0,0.1-0.1,0.2-0.2,0.3-1.9,1-3.1,3-3.1,5.2 0,3.3 2.7,6 6,6h14c3.3,0 6-2.7 6-6 0-2.9-2-5.3-4.6-5.9zm-8.3-4.1c0.3-0.1 0.6-0.1 0.9-0.1 1.6,0 2.9,1.3 3,2.9 0,0.1 0,0.2 0,0.2-0.1,0.3-0.4,0.4-0.7,0.3-0.8-0.4-1.4-0.8-2-1.3-0.4-0.3-0.8-0.6-1.3-1-0.1-0.1-0.2-0.2-0.2-0.3-0.1-0.3 0-0.6 0.3-0.7zm6.9,11.9h-14c-1.1,0-2-0.9-2-2 0-0.9 0.6-1.7 1.5-1.9 0.8-0.2 1.4-0.9 1.5-1.8 0.1-1.3 1.2-2.3 2.5-2.3 0.8,0 1.3,0.3 2.3,1.1 1.5,1.2 3.6,2.9 8.2,2.9 1.1,0 2,0.9 2,2s-0.9,2-2,2z"/>
    <ellipse cx="10.993" cy="2.449" rx="2" ry="2"/>
    <circle cx="19" cy="3.451" r="2"/>
    <circle cx="24" cy="9.451" r="2"/>
    <circle cx="5" cy="7.451" r="2"/>
  </g>
</svg>
