<?xml version='1.0' encoding='iso-8859-1'?>
<svg version="1.1" xmlns="http://www.w3.org/2000/svg" viewBox="0 0 26.1 26.1" xmlns:xlink="http://www.w3.org/1999/xlink" enable-background="new 0 0 26.1 26.1">
  <g>
    <path d="m25,0c-0.1,0-0.3,0-0.4,0.1l-24,10c-0.4,0.2-0.6,0.5-0.6,0.9 0,0.5 0.3,0.9 0.8,1l10.4,2.5c0.2,0 0.3,0.2 0.4,0.4l2.5,10.4c0.1,0.4 0.5,0.8 1,0.8 0.4,0 0.8-0.3 0.9-0.6l10-24c0-0.1 0.1-0.2 0.1-0.4-0.1-0.7-0.5-1.1-1.1-1.1zm-9.6,14l-.5-2.1c-0.1-0.4-0.4-0.6-0.7-0.7l-2.1-.5c-0.5-0.1-0.5-0.8-0.1-0.9l6.3-2.6c0.4-0.2 0.8,0.2 0.7,0.7l-2.6,6.3c-0.3,0.3-0.9,0.2-1-0.2z"/>
  </g>
</svg>
