<?xml version='1.0' encoding='iso-8859-1'?>
<svg version="1.1" xmlns="http://www.w3.org/2000/svg" viewBox="0 0 26 26" xmlns:xlink="http://www.w3.org/1999/xlink" enable-background="new 0 0 26 26">
  <path d="M25,0c-0.1,0-0.2,0-0.3,0.1l-18,6C6.4,6.2,6.2,6.4,6.1,6.7l-6,18C0.1,24.8,0,24.9,0,25c0,0.6,0.4,1,1,1c0.1,0,0.2,0,0.3-0.1  l18-6c0.3-0.1,0.5-0.3,0.6-0.6l6-18C25.9,1.2,26,1.1,26,1C26,0.4,25.6,0,25,0z M9.2,12.1l4.7,4.7c0.3,0.3,0.2,0.7-0.2,0.8l-7,2.3  c-0.4,0.1-0.8-0.2-0.6-0.6l2.3-7C8.5,11.9,9,11.8,9.2,12.1z M16.8,13.9l-4.7-4.7c-0.3-0.3-0.2-0.7,0.2-0.8l8-2.7l-2.7,8  C17.5,14.1,17,14.2,16.8,13.9z"/>
</svg>
