<?xml version='1.0' encoding='iso-8859-1'?>
<svg version="1.1" xmlns="http://www.w3.org/2000/svg" viewBox="0 0 24 24" xmlns:xlink="http://www.w3.org/1999/xlink" enable-background="new 0 0 24 24">
  <g>
    <path d="m17,6h-16c-0.6,0-1,0.4-1,1v16c0,0.6 0.4,1 1,1h16c0.6,0 1-0.4 1-1v-16c0-0.6-0.4-1-1-1zm-3,13.5c0,0.3-0.2,0.5-0.5,0.5h-9c-0.3,0-0.5-0.2-0.5-0.5v-9c0-0.3 0.2-0.5 0.5-0.5h9c0.3,0 0.5,0.2 0.5,0.5v9z"/>
    <path d="M23,0H7C6.4,0,6,0.4,6,1v2c0,0.6,0.4,1,1,1h12.5C19.8,4,20,4.2,20,4.5V17c0,0.6,0.4,1,1,1h2c0.6,0,1-0.4,1-1V1   C24,0.4,23.6,0,23,0z"/>
  </g>
</svg>
