<?xml version='1.0' encoding='iso-8859-1'?>
<svg version="1.1" xmlns="http://www.w3.org/2000/svg" viewBox="0 0 26 26" xmlns:xlink="http://www.w3.org/1999/xlink" enable-background="new 0 0 26 26">
  <path d="m17.849,11h-2.3c-0.3,0-0.5-0.2-0.5-0.5v-3c0-0.3 0.2-0.5 0.5-0.5h6.5c0.6,0 1-0.4 1-1v-2c0-0.6-0.4-1-1-1h-6.5c-0.3,0-0.5-0.2-0.5-0.5v-1.5c0-0.6-0.4-1-1-1h-2c-0.6,0-1,0.4-1,1v1.5c0,0.3-0.2,0.5-0.5,0.5h-2.3c-3,0-5.8,2.2-6.2,5.2-0.5,3.7 2.4,6.8 5.9,6.8h2.5c0.3,0 0.5,0.2 0.5,0.5v3c0,0.3-0.2,0.5-0.5,0.5h-6.4c-0.6,0-1,0.4-1,1v2c0,0.6 0.4,1 1,1h6.5c0.3,0 0.5,0.2 0.5,0.5v1.5c0,0.6 0.4,1 1,1h2c0.6,0 1-0.4 1-1v-1.5c0-0.3 0.2-0.5 0.5-0.5h2.5c3.6,0 6.4-3.1 5.9-6.8-0.3-3-3.1-5.2-6.1-5.2zm-9.8,0c-1.2,0-2.2-1.1-2-2.3 0.2-1 1.1-1.7 2.1-1.7h2.4c0.3,0 0.5,0.2 0.5,0.5v3c0,0.3-0.2,0.5-0.5,0.5h-2.5zm9.9,8h-2.4c-0.3,0-0.5-0.2-0.5-0.5v-3c0-0.3 0.2-0.5 0.5-0.5h2.5c1.2,0 2.2,1.1 2,2.3-0.2,1-1.1,1.7-2.1,1.7z"/>
</svg>
