<?xml version='1.0' encoding='iso-8859-1'?>
<svg version="1.1" xmlns="http://www.w3.org/2000/svg" viewBox="0 0 26 26" xmlns:xlink="http://www.w3.org/1999/xlink" enable-background="new 0 0 26 26">
  <g>
    <path d="m13,0c-7.2,0-13,5.8-13,13s5.8,13 13,13 13-5.8 13-13-5.8-13-13-13zm0,22c-5,0-9-4-9-9s4-9 9-9 9,4 9,9-4,9-9,9z"/>
    <path d="m18.5,10.1l-1.7-1c-0.1-0.1-0.3-0.1-0.5-0.1-0.3,0-0.5,0.1-0.7,0.3l-1.8,2.1c-0.4,0.5-1.1,0.5-1.5,0l-1.8-2.1c-0.2-0.2-0.4-0.3-0.7-0.3-0.2,0-0.4,0-0.5,0.1l-1.7,1c-0.3,0.2-0.5,0.5-0.5,0.9 0,0.2 0,0.3 0.1,0.5l.1,.1 5,6c0.2,0.2 0.5,0.4 0.8,0.4s0.6-0.1 0.8-0.4l5-6 .1-.1c0.1-0.2 0.1-0.3 0.1-0.5-0.1-0.3-0.3-0.7-0.6-0.9z"/>
  </g>
</svg>
