<?xml version='1.0' encoding='iso-8859-1'?>
<svg version="1.1" xmlns="http://www.w3.org/2000/svg" viewBox="0 0 26 26" xmlns:xlink="http://www.w3.org/1999/xlink" enable-background="new 0 0 26 26">
  <g>
    <circle cx="9" cy="10" r="2"/>
    <circle cx="17" cy="10" r="2"/>
    <path d="m13,0c-7.2,0-13,5.8-13,13s5.8,13 13,13 13-5.8 13-13-5.8-13-13-13zm0,22c-5,0-9-4-9-9s4-9 9-9 9,4 9,9-4,9-9,9z"/>
    <path d="m16.3,15.3c-0.2-0.2-0.5-0.3-0.7-0.3s-0.5,0.1-0.7,0.3c-0.4,0.4-1.2,0.7-1.9,0.7s-1.5-0.3-1.9-0.7c-0.2-0.2-0.5-0.3-0.7-0.3s-0.5,0.1-0.7,0.3l-1.4,1.4c-0.2,0.2-0.3,0.5-0.3,0.7 0,0.3 0.1,0.5 0.3,0.7 1.2,1.2 2.9,1.9 4.7,1.9s3.5-0.7 4.7-1.9c0.2-0.2 0.3-0.5 0.3-0.7 0-0.3-0.1-0.5-0.3-0.7l-1.4-1.4z"/>
  </g>
</svg>
