<?xml version='1.0' encoding='iso-8859-1'?>
<svg version="1.1" xmlns="http://www.w3.org/2000/svg" viewBox="0 0 26 26" xmlns:xlink="http://www.w3.org/1999/xlink" enable-background="new 0 0 26 26">
  <path d="M25,2H1C0.4,2,0,2.4,0,3v20c0,0.6,0.4,1,1,1h24c0.6,0,1-0.4,1-1V3C26,2.4,25.6,2,25,2z M16.6,6.9l-3.3,2.4  c-0.2,0.1-0.4,0.1-0.6,0L9.4,6.9C9,6.6,9.2,6,9.7,6h6.6C16.8,6,17,6.6,16.6,6.9z M4,19.5V8.9c0-0.4,0.5-0.6,0.8-0.4l7.6,5.5  c0.4,0.3,0.8,0.3,1.2,0l7.6-5.5c0.3-0.2,0.8,0,0.8,0.4v10.6c0,0.3-0.2,0.5-0.5,0.5h-17C4.2,20,4,19.8,4,19.5z"/>
</svg>
