<?xml version='1.0' encoding='iso-8859-1'?>
<svg version="1.1" xmlns="http://www.w3.org/2000/svg" viewBox="0 0 26 26" xmlns:xlink="http://www.w3.org/1999/xlink" enable-background="new 0 0 26 26">
  <path d="M23.2,18.8c-0.4-0.4-1-0.3-1.4,0.1L21.7,19c-0.9,1-2.7,2.9-5.7,2.9c-2,0-3.8-0.8-5.2-2.1c-0.3-0.3-0.1-0.9,0.4-0.9H14  c0.6,0,1-0.4,1-1v-2c0-0.6-0.4-1-1-1H8.6c-0.2,0-0.5-0.2-0.5-0.4C8,14,8,13.5,8,12.9s0-1.1,0.1-1.6c0-0.2,0.3-0.4,0.5-0.4H14  c0.6,0,1-0.4,1-1v-2c0-0.6-0.4-1-1-1h-2.8c-0.4,0-0.7-0.6-0.4-0.9C12.2,4.7,14,3.9,16,3.9c3,0,4.8,2,5.7,2.9l0.1,0.1  c0.4,0.4,1,0.4,1.4,0.1l1.5-1.3C24.9,5.5,25,5.3,25,5c0-0.3-0.1-0.5-0.3-0.7C23.6,3.2,20.8,0,16,0C11.5,0,7.5,2.7,5.5,6.7  C5.4,6.9,5.2,7,5.1,7H2C1.4,7,1,7.4,1,8v2c0,0.6,0.4,1,1,1h1.6c0.3,0,0.5,0.3,0.5,0.6C4,12.1,4,12.6,4,13s0,1,0.1,1.4  c0,0.3-0.2,0.6-0.5,0.6H2c-0.6,0-1,0.4-1,1v2c0,0.6,0.4,1,1,1h3.1c0.2,0,0.4,0.1,0.4,0.3c2,4,6,6.7,10.5,6.7c4.8,0,7.6-3.1,8.7-4.3  c0.2-0.2,0.3-0.4,0.3-0.7c0-0.3-0.1-0.6-0.3-0.7L23.2,18.8z"/>
</svg>
