<?xml version='1.0' encoding='iso-8859-1'?>
<svg version="1.1" xmlns="http://www.w3.org/2000/svg" viewBox="0 0 26.046 26.046" xmlns:xlink="http://www.w3.org/1999/xlink" enable-background="new 0 0 26.046 26.046">
  <path d="m1.65,21.746l-1.2,1.2c-0.4,0.4-0.4,1 0,1.4l1.4,1.4c0.4,0.4 1,0.4 1.4,0l1.2-1.2c0.2-0.2 0.5-0.2 0.7,0l1.2,1.2c0.4,0.4 1,0.4 1.4,0l1.4-1.4c0.4-0.4 0.4-1 0-1.4l-1.2-1.2c-0.2-0.2-0.2-0.5 0-0.7l.6-.6c0.2-0.2 0.4-0.2 0.6-0.1 2.2,1.4 4.9,2 7.8,1.5 4.5-0.8 8.2-4.5 8.9-9 1.2-7.5-5.2-13.9-12.8-12.7-4.5,0.8-8.2,4.4-8.9,9-0.5,2.9 0.2,5.6 1.6,7.8 0.1,0.2 0.1,0.5-0.1,0.6l-.6,.6c-0.2,0.2-0.5,0.2-0.7,0l-1.2-1.2c-0.4-0.4-1-0.4-1.4,0l-1.4,1.4c-0.4,0.4-0.4,1 0,1.4l1.2,1.2c0.3,0.3 0.3,0.7 0.1,0.8zm13.5-17.6c3.9-8.88178e-16 7,3.1 7,7s-3.1,7-7,7-7-3.1-7-7 3.1-7 7-7z"/>
</svg>
