<?xml version='1.0' encoding='iso-8859-1'?>
<svg version="1.1" xmlns="http://www.w3.org/2000/svg" viewBox="0 0 26 26" xmlns:xlink="http://www.w3.org/1999/xlink" enable-background="new 0 0 26 26">
  <g>
    <circle cx="8" cy="13" r="2"/>
    <circle cx="13" cy="8" r="2"/>
    <circle cx="18" cy="13" r="2"/>
    <circle cx="13" cy="18" r="2"/>
    <path d="m13,0c-7.2,0-13,5.8-13,13s5.8,13 13,13c3.1,0 6-1.1 8.2-2.9 0.3-0.3 0.8,0 0.8,0.4v1.5c0,0.6 0.4,1 1,1h2c0.6,0 1-0.4 1-1v-12c0-7.2-5.8-13-13-13zm0,22c-5,0-9-4-9-9s4-9 9-9 9,4 9,9-4,9-9,9z"/>
  </g>
</svg>
