<?xml version='1.0' encoding='iso-8859-1'?>
<svg version="1.1" xmlns="http://www.w3.org/2000/svg" viewBox="0 0 26 26" xmlns:xlink="http://www.w3.org/1999/xlink" enable-background="new 0 0 26 26">
  <path d="m25,1c-0.1,0-0.2,0-0.4,0.1-1.2,0.5-2.4,0.9-3.7,0.9-2.7,0-5.3-2-8-2s-5.3,2-8,2c-0.6,0-1,0.4-1,1v18.5c0,0.3-0.2,0.5-0.5,0.5h-2.4c-0.6,0-1,0.4-1,1v2c0,0.6 0.4,1 1,1h10c0.6,0 1-0.4 1-1v-2c0-0.6-0.4-1-1-1h-2.5c-0.3,0-0.5-0.2-0.5-0.5v-3.8c0-0.2 0.1-0.4 0.3-0.5 1.5-0.6 3.1-1.3 4.7-1.3 2.7,0 5.3,2 8,2 1.4,0 2.7-0.5 4-1 0.1,0 0.2-0.1 0.4-0.1 0.4-0.1 0.6-0.5 0.6-0.9v-7.1-6.7c0-0.7-0.4-1.1-1-1.1zm-3,7.7v4.6c0,0.2-0.2,0.4-0.4,0.5s-0.4,0.1-0.6,0.1c-0.6,0-1.6-0.4-2.6-0.7-1.6-0.6-3.3-1.3-5.4-1.3-1.6,0-3.1,0.4-4.3,0.9-0.3,0.1-0.7-0.1-0.7-0.5v-6.4c0-0.2 0.1-0.4 0.4-0.5 0.7-0.2 1.4-0.5 2.1-0.7 1-0.4 2-0.7 2.6-0.7s1.6,0.4 2.6,0.7c1.6,0.6 3.3,1.3 5.4,1.3 0.2,0 0.3,0 0.5,0 0.3,0 0.5,0.2 0.5,0.5v2.2h-0.1z"/>
</svg>
