<?xml version='1.0' encoding='iso-8859-1'?>
<svg version="1.1" xmlns="http://www.w3.org/2000/svg" viewBox="0 0 26 26" xmlns:xlink="http://www.w3.org/1999/xlink" enable-background="new 0 0 26 26">
  <path d="m4.5,5.55h4.7c0.2,0 0.4,0.1 0.4,0.3l1.6,3.2c0.2,0.3 0.5,0.6 0.9,0.6h9.4c0.3,0 0.5,0.2 0.5,0.5v10c0,0.3-0.2,0.5-0.5,0.5h-17c-0.3,0-0.5-0.2-0.5-0.5v-14c0-0.4 0.2-0.6 0.5-0.6zm-3.5-4c-0.6,2.22045e-16-1,0.4-1,1v4 2 15c0,0.6 0.4,1 1,1h24c0.6,0 1-0.4 1-1v-17c0-0.6-0.4-1-1-1h-10.7c-0.2,0-0.4-0.1-0.4-0.3l-1.6-3.2c-0.2-0.3-0.5-0.6-0.9-0.6l-10.4,.1z"/>
</svg>
