<?xml version='1.0' encoding='iso-8859-1'?>
<svg version="1.1" xmlns="http://www.w3.org/2000/svg" viewBox="0 0 26.1 26.1" xmlns:xlink="http://www.w3.org/1999/xlink" enable-background="new 0 0 26.1 26.1">
  <path d="m24.05,0h-22c-0.6,0-1,0.4-1,1v3.4c0,0.3 0.1,0.5 0.3,0.7l9.6,9.6c0.1,0.1 0.1,0.2 0.1,0.4v10c0,0.6 0.4,1 1,1h2c0.6,0 1-0.4 1-1v-10c0-0.1 0.1-0.3 0.1-0.4l9.6-9.6c0.2-0.2 0.3-0.4 0.3-0.7v-3.4c0-0.6-0.4-1-1-1zm-11.4,10.8l-6-6c-0.3-0.3-0.1-0.9 0.4-0.9h12c0.4,0 0.7,0.5 0.4,0.9l-6,6c-0.2,0.2-0.6,0.2-0.8,0z"/>
</svg>
