<?xml version='1.0' encoding='iso-8859-1'?>
<svg version="1.1" xmlns="http://www.w3.org/2000/svg" viewBox="0 0 26 26" xmlns:xlink="http://www.w3.org/1999/xlink" enable-background="new 0 0 26 26">
  <g>
    <path d="M25,6c0.6,0,1-0.4,1-1V3c0-0.6-0.4-1-1-1h-9.5C15.2,2,15,1.8,15,1.5V1c0-0.6-0.4-1-1-1h-2c-0.6,0-1,0.4-1,1v0.5   C11,1.8,10.8,2,10.5,2H1C0.4,2,0,2.4,0,3v2c0,0.6,0.4,1,1,1H25z M2,9v16c0,0.6,0.4,1,1,1h20c0.6,0,1-0.4,1-1V9c0-0.6-0.4-1-1-1h-2   c-0.6,0-1,0.4-1,1v12.5c0,0.3-0.2,0.5-0.5,0.5h-13C6.2,22,6,21.8,6,21.5V9c0-0.6-0.4-1-1-1H3C2.4,8,2,8.4,2,9z"/>
    <path d="M11,8H9C8.4,8,8,8.4,8,9v10c0,0.6,0.4,1,1,1h2c0.6,0,1-0.4,1-1V9C12,8.4,11.6,8,11,8z"/>
    <path d="m17,8h-2c-0.6,0-1,0.4-1,1v10c0,0.6 0.4,1 1,1h2c0.6,0 1-0.4 1-1v-10c0-0.6-0.4-1-1-1z"/>
  </g>
</svg>
