<?xml version='1.0' encoding='iso-8859-1'?>
<svg version="1.1" xmlns="http://www.w3.org/2000/svg" viewBox="0 0 26 26" xmlns:xlink="http://www.w3.org/1999/xlink" enable-background="new 0 0 26 26">
  <path d="m25,9h-2.4c-0.4,0-0.6-0.5-0.4-0.8 0.5-0.6 0.8-1.4 0.8-2.2 0-3-3-6-6-6-1.5,0-2.7,1-3.6,2.4-0.2,0.3-0.6,0.3-0.8,0-0.9-1.4-2.1-2.4-3.6-2.4-3,0-6,3-6,6 0,0.8 0.3,1.6 0.8,2.2 0.3,0.3 0,0.8-0.4,0.8h-2.4c-0.6,0-1,0.4-1,1v2c0,0.6 0.4,1 1,1h0.5c0.3,0 0.5,0.2 0.5,0.5v11.5c0,0.6 0.4,1 1,1h20c0.6,0 1-0.4 1-1v-11.5c0-0.3 0.2-0.5 0.5-0.5h0.5c0.6,0 1-0.4 1-1v-2c0-0.6-0.4-1-1-1zm-7.8-5c0.7,0.1 1.7,1.1 1.8,1.8-0.3,0.4-1.4,1-2.6,1.4-0.4,0.1-0.8-0.2-0.6-0.6 0.4-1.2 0.9-2.2 1.4-2.6zm-8.4,0c0.4,0.3 1,1.4 1.4,2.6 0.1,0.4-0.2,0.8-0.6,0.6-1.2-0.4-2.2-1-2.6-1.4 0.1-0.7 1.1-1.7 1.8-1.8zm-2.3,9h4c0.3,0 0.5,0.2 0.5,0.5v8c0,0.3-0.2,0.5-0.5,0.5h-4c-0.3,0-0.5-0.2-0.5-0.5v-8c0-0.3 0.2-0.5 0.5-0.5zm13,9h-4c-0.3,0-0.5-0.2-0.5-0.5v-8c0-0.3 0.2-0.5 0.5-0.5h4c0.3,0 0.5,0.2 0.5,0.5v8c0,0.3-0.2,0.5-0.5,0.5z"/>
</svg>
