<?xml version='1.0' encoding='iso-8859-1'?>
<svg version="1.1" xmlns="http://www.w3.org/2000/svg" viewBox="0 0 24.1 24.1" xmlns:xlink="http://www.w3.org/1999/xlink" enable-background="new 0 0 24.1 24.1">
  <path d="m.05,1v5c0,1.3 0.6,2.5 1.7,3.3l8.1,5.7c0.1,0.1 0.2,0.2 0.2,0.4v4.2c0,0.3-0.2,0.5-0.5,0.5h-4.5c-0.6,0-1,0.4-1,1v2c0,0.6 0.4,1 1,1h14c0.6,0 1-0.4 1-1v-2c0-0.6-0.4-1-1-1h-4.5c-0.3,0-0.5-0.2-0.5-0.5v-4.2c0-0.2 0.1-0.3 0.2-0.4l8.1-5.7c1.1-0.7 1.7-2 1.7-3.3v-5c0-0.6-0.4-1-1-1h-22c-0.6,0-1,0.4-1,1zm19.8,5.1l-7.5,5.3c-0.2,0.1-0.4,0.1-0.6,0l-7.5-5.3c-0.1-0.1-0.2-0.2-0.2-0.4v-1.2c0-0.3 0.2-0.5 0.5-0.5h15c0.3,0 0.5,0.2 0.5,0.5v1.2c0,0.2-0.1,0.3-0.2,0.4z"/>
</svg>
