<?xml version='1.0' encoding='iso-8859-1'?>
<svg version="1.1" xmlns="http://www.w3.org/2000/svg" viewBox="0 0 26 26" xmlns:xlink="http://www.w3.org/1999/xlink" enable-background="new 0 0 26 26">
  <path d="M18,5c2.2,0,4,1.8,4,4c0,6.9-6.9,12-9,12S4,15.9,4,9c0-2.2,1.8-4,4-4c1.2,0,2,0.5,2.5,0.9l1.9,1.5c0.4,0.3,0.9,0.3,1.3,0  l1.9-1.5C16,5.5,16.8,5,18,5 M8,1C3.6,1,0,4.6,0,9c0,9,8.6,16,13,16s13-7,13-16c0-4.4-3.6-8-8-8l0,0c-1.8,0-3.4,0.6-4.7,1.5  c-0.2,0.1-0.4,0.1-0.6,0C11.4,1.6,9.8,1,8,1z"/>
</svg>
