<?xml version='1.0' encoding='iso-8859-1'?>
<svg version="1.1" xmlns="http://www.w3.org/2000/svg" viewBox="0 0 26 26" xmlns:xlink="http://www.w3.org/1999/xlink" enable-background="new 0 0 26 26">
  <path d="M25.6,9.2l-12-8C13.4,1.1,13.3,1,13,1s-0.4,0.1-0.6,0.2l-12,8C0.1,9.4,0,9.7,0,10c0,0.6,0.4,1,1,1h1.5C2.8,11,3,11.2,3,11.5  V24c0,0.6,0.4,1,1,1h18c0.6,0,1-0.4,1-1V11.5c0-0.3,0.2-0.5,0.5-0.5H25c0.6,0,1-0.4,1-1C26,9.7,25.8,9.3,25.6,9.2z M19,20.5  c0,0.3-0.2,0.5-0.5,0.5h-3c-0.3,0-0.5-0.2-0.5-0.5V16c0-0.6-0.4-1-1-1h-2c-0.6,0-1,0.4-1,1v4.5c0,0.3-0.2,0.5-0.5,0.5h-3  C7.2,21,7,20.8,7,20.5V9.9c0-0.2,0.1-0.3,0.2-0.4l5.5-3.7c0.2-0.1,0.4-0.1,0.6,0l5.5,3.7C18.9,9.6,19,9.7,19,9.9  C19,9.9,19,20.5,19,20.5z"/>
</svg>
