<?xml version='1.0' encoding='iso-8859-1'?>
<svg version="1.1" xmlns="http://www.w3.org/2000/svg" viewBox="0 0 26 26" xmlns:xlink="http://www.w3.org/1999/xlink" enable-background="new 0 0 26 26">
  <g>
    <path d="M22.2,3.8C19.8,1.4,16.6,0,13,0S6.2,1.5,3.8,3.8C1.4,6.2,0,9.4,0,13s1.5,6.8,3.8,9.2C6.2,24.6,9.4,26,13,26   s6.8-1.5,9.2-3.8c2.4-2.4,3.8-5.6,3.8-9.2S24.5,6.2,22.2,3.8z M19.4,19.4c-1.7,1.7-4,2.6-6.4,2.6s-4.7-0.9-6.4-2.6   C4.9,17.7,4,15.4,4,13s0.9-4.7,2.6-6.4C8.3,4.9,10.6,4,13,4s4.7,0.9,6.4,2.6c1.7,1.7,2.6,4,2.6,6.4S21.1,17.7,19.4,19.4z"/>
    <path d="m14,6h-2c-0.6,0-1,0.4-1,1v2c0,0.6 0.4,1 1,1h2c0.6,0 1-0.4 1-1v-2c0-0.6-0.4-1-1-1z"/>
    <path d="m14,12h-2c-0.6,0-1,0.4-1,1v6c0,0.6 0.4,1 1,1h2c0.6,0 1-0.4 1-1v-6c0-0.6-0.4-1-1-1z"/>
  </g>
</svg>
