<?xml version='1.0' encoding='iso-8859-1'?>
<svg version="1.1" xmlns="http://www.w3.org/2000/svg" viewBox="0 0 26 26" xmlns:xlink="http://www.w3.org/1999/xlink" enable-background="new 0 0 26 26">
  <g>
    <path d="M0.6,6.9l12,5c0.1,0,0.2,0.1,0.4,0.1s0.3,0,0.4-0.1l12-5C25.8,6.7,26,6.4,26,6s-0.3-0.8-0.6-0.9l-12-5   C13.3,0.1,13.2,0,13,0s-0.3,0-0.4,0.1l-12,5C0.2,5.3,0,5.6,0,6S0.3,6.8,0.6,6.9z M13,4.2L17.2,6L13,7.8L8.8,6L13,4.2z"/>
    <path d="m24.6,9.9l-11.6,4.8-11.6-4.8c-0.7-0.3-1.4,0.2-1.4,0.9v2.2c0,0.4 0.3,0.8 0.6,0.9l12,5c0.1,0 0.2,0.1 0.4,0.1s0.3,0 0.4-0.1l12-5c0.4-0.2 0.6-0.5 0.6-0.9v-2.2c0-0.7-0.7-1.2-1.4-0.9z"/>
    <path d="m24.6,16.9l-11.6,4.8-11.6-4.8c-0.7-0.3-1.4,0.2-1.4,0.9v2.2c0,0.4 0.3,0.8 0.6,0.9l12,5c0.1,0 0.2,0.1 0.4,0.1s0.3,0 0.4-0.1l12-5c0.4-0.2 0.6-0.5 0.6-0.9v-2.2c0-0.7-0.7-1.2-1.4-0.9z"/>
  </g>
</svg>
