<?xml version='1.0' encoding='iso-8859-1'?>
<svg version="1.1" xmlns="http://www.w3.org/2000/svg" viewBox="0 0 26 26" xmlns:xlink="http://www.w3.org/1999/xlink" enable-background="new 0 0 26 26">
  <g>
    <path d="m16,22h-6c-0.6,0-1,0.4-1,1v2c0,0.6 0.4,1 1,1h6c0.6,0 1-0.4 1-1v-2c0-0.6-0.4-1-1-1z"/>
    <path d="m13,0c-5,0-9,4-9,9 0,6.2 4.3,6.9 4.9,10.2 0.1,0.5 0.5,0.8 1,0.8h6.2c0.5,0 0.9-0.4 1-0.8 0.6-3.3 4.9-3.9 4.9-10.2 0-5-4-9-9-9zm3.1,13.3c-0.5,0.6-1.2,1.3-1.8,2.2-0.2,0.3-0.5,0.5-0.9,0.5h-1c-0.3,0-0.7-0.2-0.9-0.5-0.6-0.9-1.2-1.6-1.8-2.2-1.2-1.3-1.9-2.1-1.9-4.3 0-2.8 2.2-5 5-5s5,2.2 5,5c0.2,2.2-0.5,3-1.7,4.3z"/>
  </g>
</svg>
