<?xml version='1.0' encoding='iso-8859-1'?>
<svg version="1.1" xmlns="http://www.w3.org/2000/svg" viewBox="0 0 26.2 26.2" xmlns:xlink="http://www.w3.org/1999/xlink" enable-background="new 0 0 26.2 26.2">
  <g>
    <path d="m16.4,17.85l1.4-1.4c0.4-0.4 0.4-1 0-1.4l-6.6-6.6c-0.4-0.4-1-0.4-1.4,0l-1.4,1.4c-0.4,0.4-0.4,1 0,1.4l6.6,6.6c0.4,0.4 1,0.4 1.4,0z"/>
    <path d="m5.4,11.65c-0.8-0.8-1.3-1.9-1.3-3.1 0-2.4 2-4.4 4.4-4.4 1.2,0 2.3,0.5 3.1,1.3l2.5,2.5c0.4,0.4 1,0.4 1.4,0l1.4-1.4c0.4-0.4 0.4-1 0-1.4l-2.5-2.5c-1.6-1.6-3.7-2.5-6-2.5-4.6,0-8.4,3.8-8.4,8.4 0,2.2 0.9,4.4 2.5,6l2.5,2.5c0.4,0.4 1,0.4 1.4,0l1.4-1.4c0.4-0.4 0.4-1 0-1.4l-2.4-2.6z"/>
    <path d="m23.6,11.75l-2.5-2.5c-0.4-0.4-1-0.4-1.4,0l-1.4,1.4c-0.4,0.4-0.4,1 0,1.4l2.5,2.5c0.8,0.8 1.3,1.9 1.3,3.1 0,2.4-2,4.4-4.4,4.4-1.2,0-2.3-0.5-3.1-1.3l-2.5-2.5c-0.4-0.4-1-0.4-1.4,0l-1.4,1.4c-0.4,0.4-0.4,1 0,1.4l2.5,2.5c1.6,1.6 3.7,2.5 6,2.5 4.6,0 8.4-3.8 8.4-8.4-0.1-2.2-1-4.3-2.6-5.9z"/>
  </g>
</svg>
