<?xml version='1.0' encoding='iso-8859-1'?>
<svg version="1.1" xmlns="http://www.w3.org/2000/svg" viewBox="0 0 25.9 25.9" xmlns:xlink="http://www.w3.org/1999/xlink" enable-background="new 0 0 25.9 25.9">
  <path d="m10.9,25.9c6.1,0 11-4.9 11-11 0-2.2-0.6-4.2-1.7-5.9-0.1-0.2-0.1-0.5 0.1-0.6l.8-.8c0.1-0.1 0.2-0.1 0.3-0.1 0.3,0 0.5,0.2 0.5,0.5 0,0.5 0.5,1 1,1h2c0.6,0 1-0.4 1-1v-7c0-0.6-0.4-1-1-1h-7c-0.6,0-1,0.4-1,1v2c0,0.5 0.4,1 1,1 0.1,0 0.3,0.1 0.4,0.1 0.2,0.2 0.2,0.5 0,0.7l-.8,.8c-0.2,0.2-0.4,0.2-0.6,0.1-1.7-1.1-3.7-1.7-5.9-1.7-6.1,0-11,4.9-11,11s4.8,10.9 10.9,10.9zm0-18c3.9,1.77636e-15 7,3.1 7,7s-3.1,7-7,7-7-3.1-7-7 3.1-7 7-7z"/>
</svg>
