<?xml version='1.0' encoding='iso-8859-1'?>
<svg version="1.1" xmlns="http://www.w3.org/2000/svg" viewBox="0 0 26 26" xmlns:xlink="http://www.w3.org/1999/xlink" enable-background="new 0 0 26 26">
  <g>
    <path d="m13,18c2.8,0 5-2.2 5-5v-8c0-2.8-2.2-5-5-5s-5,2.2-5,5v8c0,2.8 2.2,5 5,5zm-1-13c0-0.6 0.4-1 1-1s1,0.4 1,1v8c0,0.6-0.4,1-1,1s-1-0.4-1-1v-8z"/>
    <path d="m23,10h-2c-0.6,0-1,0.4-1,1v2c0,3.9-3.1,7-7,7s-7-3.1-7-7v-2c0-0.6-0.4-1-1-1h-2c-0.6,0-1,0.4-1,1v2c0,5.2 3.7,9.6 8.6,10.7 0.2,0.1 0.4,0.2 0.4,0.5v0.8c0,0.6 0.4,1 1,1h2c0.6,0 1-0.4 1-1v-0.8c0-0.2 0.2-0.4 0.4-0.5 4.9-1.1 8.6-5.5 8.6-10.7v-2c0-0.6-0.4-1-1-1z"/>
  </g>
</svg>
