<?xml version='1.0' encoding='iso-8859-1'?>
<svg version="1.1" xmlns="http://www.w3.org/2000/svg" viewBox="0 0 26 26" xmlns:xlink="http://www.w3.org/1999/xlink" enable-background="new 0 0 26 26">
  <path d="m25,12c-0.3,0-0.5,0.1-0.7,0.3-1.5,1.5-3.4,2.2-5.3,2.2s-3.8-0.7-5.3-2.2c-2.9-2.9-2.9-7.7 0-10.6 0.2-0.2 0.3-0.4 0.3-0.7 0-0.6-0.4-1-1-1-7.2,0-13,5.8-13,13s5.8,13 13,13 13-5.8 13-13c0-0.6-0.4-1-1-1zm-5.6,7.3c-1.6,1.6-3.9,2.7-6.4,2.7-5,0-9-4-9-9 0-2.5 1-4.8 2.7-6.4 0.1-0.1 0.2-0.1 0.4-0.1 0.3,0 0.5,0.2 0.5,0.5 0,3 1.1,5.9 3.4,8.2 2.2,2.2 5.1,3.4 8.1,3.4 0.1,0 0.3,0.1 0.4,0.1 0.1,0.1 0.1,0.4-0.1,0.6z"/>
</svg>
