<?xml version='1.0' encoding='iso-8859-1'?>
<svg version="1.1" xmlns="http://www.w3.org/2000/svg" viewBox="0 0 26.1 26.1" xmlns:xlink="http://www.w3.org/1999/xlink" enable-background="new 0 0 26.1 26.1">
  <path d="m25,6.05h-4.5c-0.3,0-0.5-0.2-0.5-0.5v-3.5c0-0.6-0.4-1-1-1h-18c-0.6,0-1,0.4-1,1v5.9c0,0.1 0,0.1 0,0.2l3.2,16.1c0.1,0.5 0.5,0.8 1,0.8h11.6c0.5,0 0.9-0.3 1-0.8l.6-2.8c0-0.2 0.3-0.4 0.5-0.4h4.6c0.5,0 0.9-0.3 1-0.8l2.6-13c0-0.1 0-0.1 0-0.2-0.1-0.6-0.5-1-1.1-1zm-9,1.9l-2.5,12.7c0,0.2-0.3,0.4-0.5,0.4h-6c-0.2,0-0.4-0.2-0.5-0.4l-2.5-12.7v-0.1-2.3c0-0.3 0.2-0.5 0.5-0.5h11c0.3,0 0.5,0.2 0.5,0.5v2.4c0-0.1 0-0.1 0,0zm4,8.7c0,0.2-0.3,0.4-0.5,0.4h-0.7c-0.3,0-0.6-0.3-0.5-0.6l1.2-6c0-0.2 0.3-0.4 0.5-0.4h0.7c0.3,0 0.6,0.3 0.5,0.6l-1.2,6z"/>
</svg>
