<?xml version='1.0' encoding='iso-8859-1'?>
<svg version="1.1" xmlns="http://www.w3.org/2000/svg" viewBox="0 0 26.1 26.1" xmlns:xlink="http://www.w3.org/1999/xlink" enable-background="new 0 0 26.1 26.1">
  <g>
    <path d="m25.75,14.9l-1.5-1.5c-0.2-0.2-0.2-0.5 0-0.7l1.5-1.5c0.4-0.4 0.4-1 0-1.4l-1.4-1.4c-0.4-0.4-1-0.4-1.4,0l-1.5,1.5c-0.2,0.2-0.5,0.2-0.7,0l-1.5-1.5c-0.4-0.4-1-0.4-1.4,0l-1.4,1.4c-0.4,0.4-0.4,1 0,1.4l1.5,1.5c0.2,0.2 0.2,0.5 0,0.7l-1.5,1.5c-0.4,0.4-0.4,1 0,1.4l1.4,1.4c0.4,0.4 1,0.4 1.4,0l1.5-1.5c0.2-0.2 0.5-0.2 0.7,0l1.5,1.5c0.4,0.4 1,0.4 1.4,0l1.4-1.4c0.4-0.4 0.4-1 0-1.4z"/>
    <path d="m13.05,0c-0.3,0-0.6,0.1-0.7,0.3l-4.1,4.5c-0.1,0.1-0.2,0.1-0.3,0.2l-7,.9c-0.5,0.1-0.9,0.5-0.9,1v12.3c0,0.5 0.4,0.9 0.9,1l7,.9c0.1,0 0.2,0.1 0.3,0.2l4.1,4.5c0.2,0.2 0.4,0.3 0.7,0.3 0.6,0 1-0.4 1-1v-24c0-0.7-0.4-1.1-1-1.1zm-3,16.8c0,0.4-0.4,0.6-0.7,0.5-0.3-0.1-0.7-0.2-1-0.2l-3.9-.5c-0.3,0-0.4-0.2-0.4-0.5v-6.1c0-0.3 0.2-0.5 0.4-0.5l3.9-.5c0.3,0 0.7-0.1 1-0.2s0.7,0.1 0.7,0.5v7.5z"/>
  </g>
</svg>
