<?xml version='1.0' encoding='iso-8859-1'?>
<svg version="1.1" xmlns="http://www.w3.org/2000/svg" viewBox="0 0 24.1 24.1" xmlns:xlink="http://www.w3.org/1999/xlink" enable-background="new 0 0 24.1 24.1">
  <g>
    <path d="m12,20.05h-7.5c-0.3,0-0.5-0.2-0.5-0.5v-15c0-0.3 0.2-0.5 0.5-0.5h7.5c0.6,0 1-0.4 1-1v-2c0-0.6-0.4-1-1-1h-11c-0.6,0-1,0.4-1,1v22c0,0.6 0.4,1 1,1h11c0.6,0 1-0.4 1-1v-2c0-0.6-0.4-1-1-1z"/>
    <path d="m23.7,11.35l-6-6c-0.2-0.2-0.4-0.3-0.7-0.3-0.3,0-0.5,0.1-0.7,0.3l-1.4,1.4c-0.2,0.2-0.3,0.4-0.3,0.7 0,0.3 0.1,0.5 0.3,0.7l1,1c0.3,0.3 0.1,0.9-0.4,0.9h-6.5c-0.6,0-1,0.4-1,1v2c0,0.6 0.4,1 1,1h6.6c0.4,0 0.7,0.5 0.4,0.9l-1,1c-0.2,0.2-0.3,0.4-0.3,0.7s0.1,0.5 0.3,0.7l1.4,1.4c0.2,0.2 0.4,0.3 0.7,0.3 0.3,0 0.5-0.1 0.7-0.3l6-6c0.2-0.2 0.3-0.5 0.3-0.7s-0.2-0.5-0.4-0.7z"/>
  </g>
</svg>
