<?xml version='1.0' encoding='iso-8859-1'?>
<svg version="1.1" xmlns="http://www.w3.org/2000/svg" viewBox="0 0 24.1 24.1" xmlns:xlink="http://www.w3.org/1999/xlink" enable-background="new 0 0 24.1 24.1">
  <g>
    <path d="m15,9.05c-6.1,0-11,4.9-11,11v3c0,0.6-0.4,1-1,1h-2c-0.6,0-1-0.4-1-1v-3c0-8.3 6.7-15 15-15h0.6c0.4,0 0.7-0.5 0.4-0.9l-1-1c-0.2-0.2-0.3-0.4-0.3-0.7 0-0.3 0.1-0.5 0.3-0.7l1.4-1.4c0.2-0.2 0.4-0.3 0.7-0.3 0.3,0 0.5,0.1 0.7,0.3l6,6c0.2,0.2 0.3,0.5 0.3,0.7 0,0.3-0.1,0.5-0.3,0.7l-6,6c-0.2,0.2-0.4,0.3-0.7,0.3-0.3,0-0.5-0.1-0.7-0.3l-1.4-1.4c-0.2-0.2-0.3-0.4-0.3-0.7 0-0.3 0.1-0.5 0.3-0.7l1-1c0.3-0.3 0.1-0.9-0.4-0.9h-0.6z"/>
  </g>
</svg>
