<?xml version='1.0' encoding='iso-8859-1'?>
<svg version="1.1" xmlns="http://www.w3.org/2000/svg" viewBox="0 0 26 26" xmlns:xlink="http://www.w3.org/1999/xlink" enable-background="new 0 0 26 26">
  <g>
    <path d="m13,0c-7.2,0-13,5.8-13,13s5.8,13 13,13 13-5.8 13-13-5.8-13-13-13zm0,22c-5,0-9-4-9-9s4-9 9-9 9,4 9,9-4,9-9,9z"/>
    <path d="M11.6,7.2l-0.1-0.1C11.3,7,11.2,7,11,7c-0.3,0-0.7,0.2-0.9,0.5l-1,1.7C9,9.3,9,9.5,9,9.7c0,0.3,0.1,0.5,0.3,0.7l2.1,1.8   c0.5,0.4,0.5,1.1,0,1.5l-2.1,1.8C9.1,15.7,9,15.9,9,16.2c0,0.2,0,0.4,0.1,0.5l1,1.7c0.2,0.3,0.5,0.5,0.9,0.5c0.2,0,0.3,0,0.5-0.1   l0.1-0.1l6-5c0.2-0.2,0.4-0.5,0.4-0.8s-0.1-0.6-0.4-0.8L11.6,7.2z"/>
  </g>
</svg>
