<?xml version='1.0' encoding='iso-8859-1'?>
<svg version="1.1" xmlns="http://www.w3.org/2000/svg" viewBox="0 0 24 24" xmlns:xlink="http://www.w3.org/1999/xlink" enable-background="new 0 0 24 24">
  <g>
    <path d="m23,0h-11c-0.6,0-1,0.4-1,1v2c0,0.6 0.4,1 1,1h7.5c0.3,0 0.5,0.2 0.5,0.5v15c0,0.3-0.2,0.5-0.5,0.5h-7.5c-0.6,0-1,0.4-1,1v2c0,0.6 0.4,1 1,1h11c0.6,0 1-0.4 1-1v-22c0-0.6-0.4-1-1-1z"/>
    <path d="M16,12c0-0.3-0.1-0.5-0.3-0.7l-6-6C9.5,5.1,9.3,5,9,5C8.7,5,8.5,5.1,8.3,5.3L6.9,6.7C6.7,6.9,6.6,7.1,6.6,7.4   c0,0.3,0.1,0.5,0.3,0.7l1,1C8.2,9.4,8,10,7.5,10H1c-0.6,0-1,0.4-1,1v2c0,0.6,0.4,1,1,1h6.6C8,14,8.3,14.5,8,14.9l-1,1   c-0.2,0.2-0.3,0.4-0.3,0.7s0.1,0.5,0.3,0.7l1.4,1.4C8.6,18.9,8.8,19,9.1,19c0.3,0,0.5-0.1,0.7-0.3l6-6C15.9,12.5,16,12.3,16,12z"/>
  </g>
</svg>
