<?xml version='1.0' encoding='iso-8859-1'?>
<svg version="1.1" xmlns="http://www.w3.org/2000/svg" viewBox="0 0 26 26" xmlns:xlink="http://www.w3.org/1999/xlink" enable-background="new 0 0 26 26">
  <path d="M23,2h-4.5C18.2,2,18,1.8,18,1.5V1c0-0.6-0.4-1-1-1h-2c-0.6,0-1,0.4-1,1v0.5C14,1.8,13.8,2,13.5,2h-1C12.2,2,12,1.8,12,1.5  V1c0-0.6-0.4-1-1-1H9C8.4,0,8,0.4,8,1v0.5C8,1.8,7.8,2,7.5,2H3C2.4,2,2,2.4,2,3v22c0,0.6,0.4,1,1,1h20c0.6,0,1-0.4,1-1V3  C24,2.4,23.6,2,23,2z M20,21.5c0,0.3-0.2,0.5-0.5,0.5h-13C6.2,22,6,21.8,6,21.5v-15C6,6.2,6.2,6,6.5,6h1C7.8,6,8,6.2,8,6.5V7  c0,0.6,0.4,1,1,1h2c0.6,0,1-0.4,1-1V6.5C12,6.2,12.2,6,12.5,6h1C13.8,6,14,6.2,14,6.5V7c0,0.6,0.4,1,1,1h2c0.6,0,1-0.4,1-1V6.5  C18,6.2,18.2,6,18.5,6h1C19.8,6,20,6.2,20,6.5V21.5z"/>
</svg>
