<?xml version='1.0' encoding='iso-8859-1'?>
<svg version="1.1" xmlns="http://www.w3.org/2000/svg" viewBox="0 0 24 24" xmlns:xlink="http://www.w3.org/1999/xlink" enable-background="new 0 0 24 24">
  <g>
    <path d="m18.5,13c-3,0-5.5,2.5-5.5,5.5s2.5,5.5 5.5,5.5 5.5-2.5 5.5-5.5-2.5-5.5-5.5-5.5zm0,7c-0.8,0-1.5-0.7-1.5-1.5s0.7-1.5 1.5-1.5 1.5,0.7 1.5,1.5-0.7,1.5-1.5,1.5z"/>
    <path d="M10,0H1C0.4,0,0,0.4,0,1v9c0,0.6,0.4,1,1,1h9c0.6,0,1-0.4,1-1V1C11,0.4,10.6,0,10,0z M7,6.5C7,6.8,6.8,7,6.5,7h-2   C4.2,7,4,6.8,4,6.5v-2C4,4.2,4.2,4,4.5,4h2C6.8,4,7,4.2,7,4.5V6.5z"/>
    <path d="m23,0h-9c-0.6,0-1,0.4-1,1v9c0,0.6 0.4,1 1,1h9c0.6,0 1-0.4 1-1v-9c0-0.6-0.4-1-1-1zm-3,6.5c0,0.3-0.2,0.5-0.5,0.5h-2c-0.3,0-0.5-0.2-0.5-0.5v-2c0-0.3 0.2-0.5 0.5-0.5h2c0.3,0 0.5,0.2 0.5,0.5v2z"/>
    <path d="m10,13h-9c-0.6,0-1,0.4-1,1v9c0,0.6 0.4,1 1,1h9c0.6,0 1-0.4 1-1v-9c0-0.6-0.4-1-1-1zm-3,6.5c0,0.3-0.2,0.5-0.5,0.5h-2c-0.3,0-0.5-0.2-0.5-0.5v-2c0-0.3 0.2-0.5 0.5-0.5h2c0.3,0 0.5,0.2 0.5,0.5v2z"/>
  </g>
</svg>
