<?xml version='1.0' encoding='iso-8859-1'?>
<svg version="1.1" xmlns="http://www.w3.org/2000/svg" viewBox="0 0 26 26" xmlns:xlink="http://www.w3.org/1999/xlink" enable-background="new 0 0 26 26">
  <g>
    <circle cx="11" cy="10.1" r="2"/>
    <path d="m20.3,13.4c-0.1-0.1-0.1-0.2-0.1-0.3s0-0.2 0.1-0.3l4.5-5.5c0.1-0.2 0.2-0.4 0.2-0.7 0-0.2 0-0.5-0.2-0.7-0.6-0.9-1.3-1.7-2.1-2.5-2.3-2.1-5.4-3.4-8.7-3.4-7.2,0-13,5.8-13,13s5.8,13 13,13c3.4,0 6.4-1.3 8.7-3.4 0.8-0.7 1.5-1.6 2.1-2.5 0.1-0.2 0.2-0.4 0.2-0.7 0-0.2-0.1-0.5-0.2-0.7l-4.5-5.3zm-.3,6.4c-1.6,1.4-3.7,2.3-6,2.3-5,0-9-4-9-9s4-9 9-9c2.2,0 4.2,0.8 5.8,2.1 0.2,0.2 0.2,0.5 0.1,0.7l-4.6,5.6c-0.3,0.4-0.3,0.9 0,1.3l4.7,5.3c0.2,0.2 0.2,0.5 0,0.7z"/>
  </g>
</svg>
