<?xml version='1.0' encoding='iso-8859-1'?>
<svg version="1.1" xmlns="http://www.w3.org/2000/svg" viewBox="0 0 26 26" xmlns:xlink="http://www.w3.org/1999/xlink" enable-background="new 0 0 26 26">
  <path d="M24,9H10.5C10.2,9,10,8.8,10,8.5V7c0-1.7,1.3-3,3-3c1.4,0,2.6,1,2.9,2.2C16,6.6,16.4,7,16.9,7h2c0.6,0,1-0.4,1-1  c0-0.1,0-0.1,0-0.2C19.3,2.5,16.5,0,13,0C9.1,0,6,3.1,6,7v1.5C6,8.8,5.8,9,5.5,9H2c-0.6,0-1,0.4-1,1v15c0,0.6,0.4,1,1,1h22  c0.6,0,1-0.4,1-1V10C25,9.4,24.6,9,24,9z M21,21.5c0,0.3-0.2,0.5-0.5,0.5h-15C5.2,22,5,21.8,5,21.5v-8C5,13.2,5.2,13,5.5,13h15  c0.3,0,0.5,0.2,0.5,0.5V21.5z"/>
</svg>
