<?xml version='1.0' encoding='iso-8859-1'?>
<svg version="1.1" xmlns="http://www.w3.org/2000/svg" viewBox="0 0 26 26" xmlns:xlink="http://www.w3.org/1999/xlink" enable-background="new 0 0 26 26">
  <path d="M24,9h-3.5C20.2,9,20,8.8,20,8.5V7c0-3.9-3.1-7-7-7S6,3.1,6,7v1.5C6,8.8,5.8,9,5.5,9H2c-0.6,0-1,0.4-1,1v15c0,0.6,0.4,1,1,1  h22c0.6,0,1-0.4,1-1V10C25,9.4,24.6,9,24,9z M10,7c0-1.7,1.3-3,3-3s3,1.3,3,3v1.5C16,8.8,15.8,9,15.5,9h-5C10.2,9,10,8.8,10,8.5V7z   M21,21.5c0,0.3-0.2,0.5-0.5,0.5h-15C5.2,22,5,21.8,5,21.5v-8C5,13.2,5.2,13,5.5,13h15c0.3,0,0.5,0.2,0.5,0.5V21.5z"/>
</svg>
