<svg version="1.1" xmlns="http://www.w3.org/2000/svg" viewBox="0 0 26 26" xmlns:xlink="http://www.w3.org/1999/xlink" enable-background="new 0 0 26 26">
  <path d="M20.6,9.6c0,0.1,0,0.3-0.1,0.4L8.8,21.7c-0.2,0.2-0.5,0.2-0.7,0L4.5,18c-0.2-0.2-0.2-0.5,0-0.7L16.2,5.6  c0.1-0.1,0.2-0.1,0.4-0.1c0.1,0,0.3,0,0.4,0.1l3.6,3.6C20.5,9.3,20.6,9.5,20.6,9.6z M16.4,0c-0.3,0-0.5,0.1-0.7,0.3L0.3,15.7  C0.1,15.9,0,16.1,0,16.4V25c0,0.6,0.4,1,1,1h8.6c0.3,0,0.5-0.1,0.7-0.3l15.4-15.4c0.2-0.2,0.3-0.4,0.3-0.7c0-0.3-0.1-0.5-0.3-0.7  l-8.6-8.6l0,0C16.9,0.1,16.7,0,16.4,0L16.4,0z"/>
</svg>
