<?xml version='1.0' encoding='iso-8859-1'?>
<svg version="1.1" xmlns="http://www.w3.org/2000/svg" viewBox="0 0 26 26" xmlns:xlink="http://www.w3.org/1999/xlink" enable-background="new 0 0 26 26">
  <g>
    <g>
      <path d="m25,6.05h-4.2c-0.5,0-0.9-0.3-1-0.8l-.6-2.5c-0.1-0.4-0.5-0.8-1-0.8h-10.4c-0.5,0-0.9,0.3-1,0.8l-.6,2.5c-0.1,0.4-0.5,0.8-1,0.8h-4.2c-0.6,0-1,0.4-1,1v16c0,0.6 0.4,1 1,1h24c0.6,0 1-0.4 1-1v-16c0-0.6-0.4-1-1-1zm-3,13.5c0,0.3-0.2,0.5-0.5,0.5h-17c-0.3,0-0.5-0.2-0.5-0.5v-9c0-0.3 0.2-0.5 0.5-0.5h4.2c0.2,0 0.4-0.2 0.5-0.4l.8-3.2c0.1-0.2 0.3-0.4 0.5-0.4h5c0.2,0 0.4,0.2 0.5,0.4l.8,3.2c0.1,0.2 0.3,0.4 0.5,0.4h4.2c0.3,0 0.5,0.2 0.5,0.5v9z"/>
    </g>
    <g>
      <circle cx="13" cy="14.05" r="4"/>
    </g>
  </g>
</svg>
