<?xml version='1.0' encoding='iso-8859-1'?>
<svg version="1.1" xmlns="http://www.w3.org/2000/svg" viewBox="0 0 26 26" xmlns:xlink="http://www.w3.org/1999/xlink" enable-background="new 0 0 26 26">
  <g>
    <path d="m25,2h-24c-0.6,0-1,0.4-1,1v20c0,0.6 0.4,1 1,1h24c0.6,0 1-0.4 1-1v-20c0-0.6-0.4-1-1-1zm-8,18h-12.5c-0.3,0-0.5-0.2-0.5-0.5v-1.1c0-0.2 0.1-0.3 0.2-0.4 1.5-0.9 3.9-2 5.8-2 1.2,0 3.2,1 5.1,2 0.7,0.3 1.4,0.7 2.1,1 0.5,0.3 0.3,1-0.2,1zm5-4c0,0.3-0.3,0.6-0.7,0.5-1.4-0.5-2.9-1.3-4.4-2-2.5-1.3-4.8-2.5-7-2.5-1.8,0-3.7,0.6-5.3,1.3-0.3,0.1-0.7-0.1-0.7-0.5v-6.3c1.33227e-15-0.3 0.2-0.5 0.5-0.5h17c0.3,0 0.5,0.2 0.5,0.5v9.5h0.1z"/>
    <circle cx="18" cy="10" r="2"/>
  </g>
</svg>
