<?xml version='1.0' encoding='iso-8859-1'?>
<svg version="1.1" xmlns="http://www.w3.org/2000/svg" viewBox="0 0 26 26" xmlns:xlink="http://www.w3.org/1999/xlink" enable-background="new 0 0 26 26">
  <g>
    <circle cx="13" cy="10" r="2"/>
    <path d="m13,0c-5.5,0-10,4.5-10,10 0,2.2 0.7,4.3 2,6l7.2,9.6c0.2,0.2 0.5,0.4 0.8,0.4s0.6-0.2 0.8-0.4l7.2-9.6c1.3-1.7 2-3.7 2-6 0-5.5-4.5-10-10-10zm4.8,13.6l-4.4,5.9-.1,.1c-0.2,0.2-0.5,0.1-0.7-0.1l-4.4-5.9c-0.8-1-1.2-2.3-1.2-3.6 0-3.3 2.7-6 6-6s6,2.7 6,6c0,1.3-0.4,2.6-1.2,3.6z"/>
  </g>
</svg>
