<?xml version='1.0' encoding='iso-8859-1'?>
<svg version="1.1" xmlns="http://www.w3.org/2000/svg" viewBox="0 0 26 26" xmlns:xlink="http://www.w3.org/1999/xlink" enable-background="new 0 0 26 26">
  <g>
    <path d="m13,0c-7.2,0-13,5.8-13,13s5.8,13 13,13 13-5.8 13-13-5.8-13-13-13zm0,22c-5,0-9-4-9-9s4-9 9-9 9,4 9,9-4,9-9,9z"/>
    <path d="m17.6,12.2l-6-4c-0.2-0.1-0.3-0.2-0.6-0.2-0.6,0-1,0.4-1,1v8c0,0.6 0.4,1 1,1 0.2,0 0.4-0.1 0.6-0.2l6-4c0.3-0.2 0.4-0.5 0.4-0.8s-0.2-0.7-0.4-0.8z"/>
  </g>
</svg>
