<?xml version='1.0' encoding='iso-8859-1'?>
<svg version="1.1" xmlns="http://www.w3.org/2000/svg" viewBox="0 0 26 26" xmlns:xlink="http://www.w3.org/1999/xlink" enable-background="new 0 0 26 26">
  <g>
    <path d="m20.5,5c-0.1,0-0.1,0-0.2,0-0.2,0-0.4-0.2-0.5-0.4-0.6-2.6-3-4.6-5.8-4.6-2.5,0-4.6,1.5-5.5,3.7-0.1,0.2-0.3,0.3-0.5,0.3-2.4,0-4.3,1.6-4.9,3.8 4.44089e-16,0.2-0.2,0.3-0.3,0.4-1.6,0.5-2.8,2-2.8,3.8 0,2.2 1.8,4 4,4h4.5 9 3c3,0 5.5-2.5 5.5-5.5 0-3-2.5-5.5-5.5-5.5zm0,7h-3-9-2.6c-0.1,0-0.3-0.1-0.4-0.2-0.2-0.2-0.2-0.5 0.1-0.7 0.7-0.6 1.2-1.4 1.4-2.4 0.1-0.4 0.4-0.8 1-0.8 1.8,0 3.5-1.1 4.2-2.8 0.3-0.7 1-1.2 1.8-1.2 0.9,0 1.7,0.6 1.9,1.5 0.5,2 2.3,3.5 4.4,3.5h0.1 0.1c0.8,0 1.5,0.7 1.5,1.5-3.55271e-15,0.9-0.7,1.6-1.5,1.6z"/>
    <path d="m22,18c-1.1,0-2,0.9-2,2v2c0,1.1 0.9,2 2,2s2-0.9 2-2v-2c0-1.1-0.9-2-2-2z"/>
    <path d="m16,20c-1.1,0-2,0.9-2,2v2c0,1.1 0.9,2 2,2s2-0.9 2-2v-2c0-1.1-0.9-2-2-2z"/>
    <path d="m10,18c-1.1,0-2,0.9-2,2v2c0,1.1 0.9,2 2,2s2-0.9 2-2v-2c0-1.1-0.9-2-2-2z"/>
    <path d="m4,20c-1.1,0-2,0.9-2,2v2c0,1.1 0.9,2 2,2s2-0.9 2-2v-2c0-1.1-0.9-2-2-2z"/>
  </g>
</svg>
