<?xml version='1.0' encoding='iso-8859-1'?>
<svg version="1.1" xmlns="http://www.w3.org/2000/svg" viewBox="0 0 26 26" xmlns:xlink="http://www.w3.org/1999/xlink" enable-background="new 0 0 26 26">
  <g>
    <path d="M20.5,5c-0.1,0-0.1,0-0.2,0l0,0c-0.2,0-0.4-0.2-0.5-0.4C19.2,2,16.8,0,14,0c-2.5,0-4.6,1.5-5.5,3.7C8.4,3.9,8.2,4,8,4l0,0   C5.6,4,3.7,5.6,3.1,7.8c0,0.2-0.2,0.3-0.3,0.4C1.2,8.7,0,10.2,0,12c0,2.2,1.8,4,4,4h4.5h9h3c3,0,5.5-2.5,5.5-5.5S23.5,5,20.5,5z    M20.5,12h-3h-9H5.9c-0.1,0-0.3-0.1-0.4-0.2c-0.2-0.2-0.2-0.5,0.1-0.7C6.3,10.5,6.8,9.7,7,8.7c0.1-0.4,0.4-0.8,1-0.8   c1.8,0,3.5-1.1,4.2-2.8c0.3-0.7,1-1.2,1.8-1.2c0.9,0,1.7,0.6,1.9,1.5c0.5,2,2.3,3.5,4.4,3.5h0.1h0.1c0.8,0,1.5,0.7,1.5,1.5   C22,11.3,21.3,12,20.5,12z"/>
    <path d="m13,20c-1.1,0-2,0.9-2,2v2c0,1.1 0.9,2 2,2s2-0.9 2-2v-2c0-1.1-0.9-2-2-2z"/>
  </g>
</svg>
