<?xml version='1.0' encoding='iso-8859-1'?>
<svg version="1.1" xmlns="http://www.w3.org/2000/svg" viewBox="0 0 26 26" xmlns:xlink="http://www.w3.org/1999/xlink" enable-background="new 0 0 26 26">
  <path d="m21.45,0c-1.9,0-4.3,0.7-6.8,2.1-0.5-0.1-1-0.1-1.6-0.1-3,0-5.8,1.2-7.8,3.2s-3.2,4.7-3.2,7.8c0,0.5 0.1,1 0.1,1.6-1.4,2.5-2.1,4.9-2.1,6.8 0,1.4 0.4,2.6 1.2,3.4 0.8,0.8 2,1.2 3.4,1.2 1.9,0 4.3-0.7 6.8-2.1 0.5,0.1 1,0.1 1.5,0.1 3,0 5.8-1.2 7.8-3.2s3.2-4.7 3.2-7.8c0-0.5 0-1-0.1-1.5 1.4-2.5 2.1-4.9 2.1-6.8 0-1.4-0.4-2.6-1.2-3.4-0.8-0.9-1.9-1.3-3.3-1.3zm-15.8,21.1c0.1,0.1 0.1,0.2 0.2,0.3 0,0.3-0.1,0.5-0.4,0.6-0.2,0-0.5,0.1-0.6,0.1-0.3,0-0.5,0-0.6-0.1-0.1-0.2-0.1-0.7 0-1.2 0-0.1 0.1-0.2 0.2-0.3 0.2-0.2 0.5-0.2 0.7,0-8.88178e-16,0.1 0.2,0.4 0.5,0.6zm13.9-10.6c0.1,0.2 0,0.3-0.1,0.5-1,1.5-2.2,3.1-3.8,4.7-1.6,1.6-3.2,2.9-4.7,3.8-0.1,0.1-0.3,0.1-0.5,0.1-2.6-1-4.5-3.6-4.5-6.5 0-1.9 0.8-3.7 2.1-4.9 1.3-1.3 3-2.1 4.9-2.1 3.1-0.1 5.6,1.8 6.6,4.4zm2.5-5.9c0,0.2 0,0.4-0.1,0.6 0,0.3-0.3,0.5-0.6,0.4-0.1,0-0.2-0.1-0.3-0.2-0.2-0.2-0.4-0.4-0.7-0.7-0.2-0.2-0.2-0.5 0-0.7 0.1-0.1 0.2-0.1 0.3-0.2 0.6-0.1 1-0.1 1.2,0 0.2,0.3 0.2,0.5 0.2,0.8z"/>
</svg>
