<?xml version='1.0' encoding='iso-8859-1'?>
<svg version="1.1" xmlns="http://www.w3.org/2000/svg" viewBox="0 0 26 26" xmlns:xlink="http://www.w3.org/1999/xlink" enable-background="new 0 0 26 26">
  <path d="m25,1.05h-24c-0.6,0-1,0.4-1,1v18c0,0.6 0.4,1 1,1h6.9c0.3,0 0.6,0.3 0.5,0.6l-.5,2.1c-0.2,0.6 0.3,1.2 1,1.2h7.4c0.7,0 1.1-0.6 1-1.2l-.5-2.1c-0.1-0.3 0.2-0.6 0.5-0.6h7.7c0.6,0 1-0.4 1-1v-18c0-0.6-0.4-1-1-1zm-3,15.5c0,0.3-0.2,0.5-0.5,0.5h-17c-0.3,0-0.5-0.2-0.5-0.5v-11c0-0.3 0.2-0.5 0.5-0.5h17c0.3,0 0.5,0.2 0.5,0.5v11z"/>
</svg>
