<?xml version='1.0' encoding='iso-8859-1'?>
<svg version="1.1" xmlns="http://www.w3.org/2000/svg" viewBox="0 0 26 26" xmlns:xlink="http://www.w3.org/1999/xlink" enable-background="new 0 0 26 26">
  <g>
    <path d="m25,11h-1.2c-0.3-1.5-0.9-3-1.8-4.2l.8-.8c0.4-0.4 0.4-1 0-1.4l-1.4-1.4c-0.4-0.4-1-0.4-1.4,0l-.8,.8c-1.2-0.9-2.7-1.5-4.2-1.8v-1.2c0-0.6-0.4-1-1-1h-2c-0.6,0-1,0.4-1,1v1.2c-1.5,0.3-3,0.9-4.2,1.8l-.8-.8c-0.4-0.4-1-0.4-1.4,0l-1.4,1.4c-0.4,0.4-0.4,1 0,1.4l.8,.8c-0.9,1.2-1.5,2.7-1.8,4.2h-1.2c-0.6,0-1,0.4-1,1v2c0,0.6 0.4,1 1,1h1.2c0.3,1.5 0.9,3 1.8,4.2l-.8,.8c-0.4,0.4-0.4,1 0,1.4l1.4,1.4c0.4,0.4 1,0.4 1.4,0l.8-.8c1.2,0.9 2.7,1.5 4.2,1.8v1.2c0,0.6 0.4,1 1,1h2c0.6,0 1-0.4 1-1v-1.2c1.5-0.3 3-0.9 4.2-1.8l.8,.8c0.4,0.4 1,0.4 1.4,0l1.4-1.4c0.4-0.4 0.4-1 0-1.4l-.8-.8c0.9-1.2 1.5-2.7 1.8-4.2h1.2c0.6,0 1-0.4 1-1v-2c0-0.6-0.4-1-1-1zm-12,9c-3.9,0-7-3.1-7-7s3.1-7 7-7 7,3.1 7,7-3.1,7-7,7z"/>
    <circle cx="13" cy="13" r="2"/>
  </g>
</svg>
