<?xml version='1.0' encoding='iso-8859-1'?>
<svg version="1.1" xmlns="http://www.w3.org/2000/svg" viewBox="0 0 26.1 26.1" xmlns:xlink="http://www.w3.org/1999/xlink" enable-background="new 0 0 26.1 26.1">
  <path d="m12.35,11.5l3-1.3c0.2-0.1 0.4,0 0.5,0.1 1.1,1 2.5,1.7 4.2,1.7 3.3,0 6-2.7 6-6s-2.7-6-6-6-6,2.7-6,6c0,0 0,0 0,0.1 0,0.2-0.1,0.4-0.3,0.5l-3,1.3c-0.2,0.1-0.4,0-0.5-0.1-1.1-1-2.5-1.7-4.2-1.7-3.3,0-6,2.7-6,6s2.7,6 6,6c1.1,0 2.2-0.3 3.1-0.9 0.2-0.1 0.4-0.1 0.6,0l1.3,1c0.2,0.1 0.2,0.3 0.2,0.5-0.1,0.4-0.2,0.9-0.2,1.4 0,3.3 2.7,6 6,6s6-2.7 6-6-2.7-6-6-6c-1.1,0-2.2,0.3-3.1,0.9-0.2,0.1-0.4,0.1-0.6,0l-1.3-.9c-0.2-0.1-0.2-0.3-0.2-0.5 0.1-0.4 0.2-1 0.2-1.4 0-0.5 0.1-0.6 0.3-0.7zm7.7-7.5c1.1,0 2,0.9 2,2s-0.9,2-2,2c-0.8,0-1.5-0.5-1.8-1.2-0.1-0.2-0.2-0.5-0.2-0.8 0-1.1 0.9-2 2-2zm-12.4,9.2c-0.4,0.5-1,0.8-1.6,0.8-1.1,0-2-0.9-2-2s0.9-2 2-2c0.8,0 1.5,0.5 1.8,1.2 0.1,0.2 0.2,0.5 0.2,0.8 0,0.5-0.2,0.9-0.4,1.2zm7.8,5.6c0.4-0.5 1-0.8 1.6-0.8 1.1,0 2,0.9 2,2s-0.9,2-2,2-2-0.9-2-2c0-0.5 0.2-0.9 0.4-1.2z"/>
</svg>
