<?xml version='1.0' encoding='iso-8859-1'?>
<svg version="1.1" xmlns="http://www.w3.org/2000/svg" viewBox="0 0 26 26" xmlns:xlink="http://www.w3.org/1999/xlink" enable-background="new 0 0 26 26">
  <g>
    <circle cx="9" cy="23" r="2"/>
    <circle cx="18" cy="23" r="2"/>
    <path d="M25,6H6C5.8,6,5.6,5.8,5.5,5.6L4.8,1.8C4.7,1.3,4.3,1,3.8,1H1C0.4,1,0,1.4,0,2v2c0,0.6,0.4,1,1,1c0.2,0,0.4,0.2,0.4,0.4   l2.8,14.8c0.1,0.5,0.5,0.8,1,0.8H9h9h4.6c0.5,0,0.9-0.3,1-0.8l2.4-13c0-0.1,0-0.1,0-0.2C26,6.5,25.6,6,25,6z M20.2,16.6   c0,0.2-0.3,0.4-0.5,0.4H8.1c-0.2,0-0.4-0.2-0.5-0.4l-1.1-6C6.4,10.3,6.7,10,7,10h13.9c0.3,0,0.5,0.3,0.5,0.6L20.2,16.6z"/>
  </g>
</svg>
