<?xml version='1.0' encoding='iso-8859-1'?>
<svg version="1.1" xmlns="http://www.w3.org/2000/svg" viewBox="0 0 26.1 26.1" xmlns:xlink="http://www.w3.org/1999/xlink" enable-background="new 0 0 26.1 26.1">
  <path d="m25.1,6.95c0-0.5-0.5-0.9-1-0.9h-4.5c-0.3,0-0.5-0.2-0.5-0.5-0.2-3.1-2.8-5.5-6-5.5s-5.7,2.4-6,5.5c0,0.3-0.2,0.5-0.5,0.5h-4.5c-0.5,0-1,0.4-1,0.9l-1.1,18c0,0.6 0.4,1.1 1,1.1h24.1c0.6,0 1-0.5 1-1.1l-1-18zm-11.9-2.9c0.9,0 1.6,0.6 1.9,1.4 0.1,0.3-0.2,0.6-0.5,0.6h-2.8c-0.3,0-0.6-0.3-0.5-0.6 0.3-0.8 1-1.4 1.9-1.4zm8.3,18h-16.7c-0.3,0-0.5-0.2-0.5-0.5l.7-11c0-0.3 0.2-0.5 0.5-0.5h1.2c0.3,0 0.5,0.2 0.5,0.5v2.5c0,0.6 0.4,1 1,1h2c0.6,0 1-0.4 1-1v-2.5c0-0.3 0.2-0.5 0.5-0.5h3c0.3,0 0.5,0.2 0.5,0.5v2.5c0,0.6 0.4,1 1,1h2c0.6,0 1-0.4 1-1v-2.5c0-0.3 0.2-0.5 0.5-0.5h1.2c0.3,0 0.5,0.2 0.5,0.5l.7,11c3.55271e-15,0.3-0.3,0.5-0.6,0.5z"/>
</svg>
