<?xml version='1.0' encoding='iso-8859-1'?>
<svg version="1.1" xmlns="http://www.w3.org/2000/svg" viewBox="0 0 25.9 25.9" xmlns:xlink="http://www.w3.org/1999/xlink" enable-background="new 0 0 25.9 25.9">
  <path d="m23.85,9.5c-0.1-0.2-0.1-0.5 0.2-0.7l.4-.2c0.3-0.2 0.5-0.5 0.5-0.9 0-0.2 0-0.3-0.1-0.5l-1-1.7c-0.3-0.5-0.9-0.6-1.4-0.4l-.4,.3c-0.2,0.1-0.5,0.1-0.7-0.2l-.3-.4c-0.3-0.5-0.9-0.6-1.4-0.4l-1.7,1c-0.5,0.3-0.6,0.9-0.4,1.4l.2,.4c0.1,0.2 0.1,0.5-0.2,0.7l-2,1.1c-0.3,0.2-0.8,0-0.8-0.4v-2.1c0-0.3 0.2-0.5 0.5-0.5h0.5c0.6,0 1-0.4 1-1v-2c0-0.6-0.4-1-1-1h-0.5c-0.3,0-0.5-0.2-0.5-0.5v-0.5c0-0.6-0.4-1-1-1h-1-1c-0.6,0-1,0.4-1,1v0.5c0,0.3-0.2,0.5-0.5,0.5h-0.3c-0.6,0-1,0.4-1,1v2c0,0.6 0.4,1 1,1h0.5c0.3,0 0.5,0.2 0.5,0.5v2.1c0,0.4-0.4,0.6-0.8,0.4l-2-1.1c-0.2-0.1-0.3-0.4-0.2-0.7l.2-.4c0.3-0.5 0.1-1.1-0.4-1.4l-1.7-1c-0.5-0.3-1.1-0.1-1.4,0.4l-.3,.4c-0.1,0.2-0.4,0.3-0.7,0.2l-.4-.3c-0.5-0.3-1.1-0.1-1.4,0.4l-1,1.7c-0.1,0.2-0.1,0.3-0.1,0.5 0,0.4 0.2,0.7 0.5,0.9l.4,.2c0.2,0.1 0.3,0.4 0.2,0.7l-.3,.4c-0.3,0.5-0.1,1.1 0.4,1.4l1.7,1c0.5,0.3 1.1,0.1 1.4-0.4l.3-.4c0.1-0.2 0.4-0.3 0.7-0.2l2.1,1.2c0.3,0.2 0.3,0.7 0,0.9l-2.1,1.2c-0.2,0.1-0.5,0.1-0.7-0.2l-.3-.4c-0.3-0.5-0.9-0.6-1.4-0.4l-1.7,1c-0.5,0.3-0.6,0.9-0.4,1.4l.3,.4c0.1,0.2 0.1,0.5-0.2,0.7l-.4,.2c-0.3,0.2-0.5,0.5-0.5,0.9 0,0.2 0,0.3 0.1,0.5l1,1.7c0.3,0.5 0.9,0.6 1.4,0.4l.4-.3c0.2-0.1 0.5-0.1 0.7,0.2l.3,.4c0.3,0.5 0.9,0.6 1.4,0.4l1.7-1c0.5-0.3 0.6-0.9 0.4-1.4l-.2-.4c-0.1-0.2-0.1-0.5 0.2-0.7l2-1.1c0.3-0.2 0.8,0 0.8,0.4v2.1c0,0.3-0.2,0.5-0.5,0.5h-0.5c-0.6,0-1,0.4-1,1v2c0,0.6 0.4,1 1,1h0.5c0.3,0 0.5,0.2 0.5,0.5v0.5c0,0.6 0.4,1 1,1h1 1c0.6,0 1-0.4 1-1v-0.5c0-0.3 0.2-0.5 0.5-0.5h0.5c0.6,0 1-0.4 1-1v-2c0-0.6-0.4-1-1-1h-0.5c-0.3,0-0.5-0.2-0.5-0.5v-2.1c0-0.4 0.4-0.6 0.8-0.4l2,1.1c0.2,0.1 0.3,0.4 0.2,0.7l-.2,.4c-0.3,0.5-0.1,1.1 0.4,1.4l1.7,1c0.5,0.3 1.1,0.1 1.4-0.4l.3-.4c0.1-0.2 0.4-0.3 0.7-0.2l.4,.3c0.5,0.3 1.1,0.1 1.4-0.4l1-1.7c0.1-0.2 0.1-0.3 0.1-0.5 0-0.4-0.2-0.7-0.5-0.9l-.4-.2c-0.2-0.1-0.3-0.4-0.2-0.7l.3-.4c0.3-0.5 0.1-1.1-0.4-1.4l-1.7-1c-0.5-0.3-1.1-0.1-1.4,0.4l-.3,.4c-0.1,0.2-0.4,0.3-0.7,0.2l-2.1-1.2c-0.3-0.2-0.3-0.7 0-0.9l2.1-1.2c0.2-0.1 0.5-0.1 0.7,0.2l.3,.4c0.3,0.5 0.9,0.6 1.4,0.4l1.7-1c0.5-0.3 0.6-0.9 0.4-1.4l-.5-.4z"/>
</svg>
