<?xml version='1.0' encoding='iso-8859-1'?>
<svg version="1.1" xmlns="http://www.w3.org/2000/svg" viewBox="0 0 24 24" xmlns:xlink="http://www.w3.org/1999/xlink" enable-background="new 0 0 24 24">
  <g>
    <path d="M1,10h22c0.3,0,0.5-0.1,0.7-0.3C23.9,9.5,24,9.2,24,9c0-0.3-0.1-0.5-0.3-0.7l0,0l-8-8C15.5,0.1,15.3,0,15,0   c-0.3,0-0.5,0.1-0.7,0.3l-1.4,1.4c-0.2,0.2-0.3,0.5-0.3,0.7c0,0.3,0.1,0.5,0.3,0.7l2,2C15.2,5.4,15,6,14.5,6H1C0.5,6,0,6.5,0,7v2   C0,9.5,0.5,10,1,10z"/>
    <path d="M23,14H1c-0.3,0-0.5,0.1-0.7,0.3S0,14.8,0,15c0,0.3,0.1,0.5,0.3,0.7l0,0l8,8C8.5,23.9,8.7,24,9,24c0.3,0,0.5-0.1,0.7-0.3   l1.4-1.4c0.2-0.2,0.3-0.5,0.3-0.7c0-0.3-0.1-0.5-0.3-0.7l-2-2C8.8,18.6,9,18,9.5,18H23c0.5,0,1-0.5,1-1v-2C24,14.5,23.5,14,23,14z"/>
  </g>
</svg>
