<?xml version='1.0' encoding='iso-8859-1'?>
<svg version="1.1" xmlns="http://www.w3.org/2000/svg" viewBox="0 0 26 26" xmlns:xlink="http://www.w3.org/1999/xlink" enable-background="new 0 0 26 26">
  <path d="M23,1H3C1.3,1,0,2.3,0,4v13c0,1.7,1.3,3,3,3h15.9c0.1,0,0.2,0,0.3,0.1l5.1,4.6c0.2,0.2,0.4,0.3,0.7,0.3c0.6,0,1-0.4,1-1V4  C26,2.3,24.7,1,23,1z M21.2,16.7c-0.7-0.4-1.5-0.7-2.3-0.7H4.5C4.2,16,4,15.8,4,15.5v-10C4,5.2,4.2,5,4.5,5h17C21.8,5,22,5.2,22,5.5  v10.7c0,0.1,0,0.2-0.1,0.3C21.8,16.7,21.5,16.8,21.2,16.7z"/>
</svg>
