<?xml version='1.0' encoding='iso-8859-1'?>
<svg version="1.1" xmlns="http://www.w3.org/2000/svg" viewBox="0 0 26.1 26.1" xmlns:xlink="http://www.w3.org/1999/xlink" enable-background="new 0 0 26.1 26.1">
  <path d="m13,10c0.2,0 0.4,0.1 0.5,0.3l.7,1.6c0.1,0.2 0.2,0.3 0.4,0.3l2.4,.3c0.3,0 0.4,0.3 0.4,0.5 0,0.1-0.1,0.3-0.2,0.4l-1.9,1.7c-0.1,0.1-0.2,0.3-0.2,0.5l.3,1.5c0.1,0.3-0.2,0.6-0.5,0.6-0.1,0-0.2,0-0.2-0.1l-1.6-.9c-0.1,0-0.2-0.1-0.2-0.1-0.1,0-0.2,0-0.2,0.1l-1.6,.9c-0.1,0-0.2,0.1-0.2,0.1-0.3,0-0.6-0.3-0.5-0.6l.3-1.5c0-0.2 0-0.4-0.2-0.5l-1.9-1.7c-0.1-0.1-0.2-0.2-0.2-0.4s0.2-0.5 0.4-0.5l2.4-.3c0.2,0 0.3-0.1 0.4-0.3l.7-1.6c0.3-0.2 0.5-0.3 0.7-0.3zm0-9c-0.4,0-0.7,0.2-0.9,0.6l-3,6.6c-0.1,0.2-0.2,0.3-0.4,0.3l-7.8,.9c-0.6,0.1-0.9,0.5-0.9,1 0,0.3 0.1,0.5 0.3,0.7l5.9,5.4c0.1,0.1 0.2,0.3 0.2,0.5l-1.4,6.9c-0.1,0.7 0.4,1.2 1,1.2 0.2,0 0.3,0 0.5-0.1l6.3-3.6c0.2-0.1 0.3-0.1 0.5,0l6.3,3.6c0.2,0.1 0.3,0.1 0.5,0.1 0.6,0 1.1-0.5 1-1.2l-1.4-6.9c0-0.2 0-0.4 0.2-0.5l5.9-5.4c0.2-0.2 0.3-0.5 0.3-0.7 0-0.5-0.3-0.9-0.9-1l-7.8-.9c-0.2,0-0.3-0.1-0.4-0.3l-3-6.6c-0.3-0.4-0.6-0.6-1-0.6z"/>
</svg>
