<?xml version='1.0' encoding='iso-8859-1'?>
<svg version="1.1" xmlns="http://www.w3.org/2000/svg" viewBox="0 0 24 24" xmlns:xlink="http://www.w3.org/1999/xlink" enable-background="new 0 0 24 24">
  <path d="m19.4,7.6c0.3-0.2 0.6-0.1 0.8,0.1 0.2,0.3 0.5,0.5 0.8,0.5h2c0.6,0 1-0.4 1-1v-6c0-0.6-0.4-1-1-1h-6c-0.6,0-1,0.4-1,1v2c0,0.4 0.2,0.7 0.5,0.8 0,0 0.1,0 0.1,0.1 0.2,0.2 0.2,0.5 0,0.7l-3.4,3.4c-0.2,0.2-0.5,0.2-0.7,0l-3-2.2c-0.4-0.3-1-0.3-1.3,0.1l-3.3,3.3c-0.3,0.3-0.9,0.1-0.9-0.4v-8c0-0.6-0.4-1-1-1h-2c-0.6,0-1,0.4-1,1v22c0,0.6 0.4,1 1,1h22c0.6,0 1-0.4 1-1v-2c0-0.6-0.4-1-1-1h-19v-4c0-0.1 0.1-0.3 0.1-0.4l4.7-4.7c0.2-0.2 0.5-0.2 0.7,0l3,2.2c0.4,0.3 1,0.3 1.3-0.1l5.6-5.4z"/>
</svg>
