<?xml version='1.0' encoding='iso-8859-1'?>
<svg version="1.1" xmlns="http://www.w3.org/2000/svg" viewBox="0 0 26 26" xmlns:xlink="http://www.w3.org/1999/xlink" enable-background="new 0 0 26 26">
  <path d="M26,24v-2.5c0-0.3-0.2-0.5-0.5-0.5h-2c-0.3,0-0.5-0.2-0.5-0.5V2c0-0.6-0.4-1-1-1h-2c-0.6,0-1,0.4-1,1v18.5  c0,0.3-0.2,0.5-0.5,0.5h-3c-0.3,0-0.5-0.2-0.5-0.5V10c0-0.6-0.4-1-1-1h-2c-0.6,0-1,0.4-1,1v10.5c0,0.3-0.2,0.5-0.5,0.5h-3  C7.2,21,7,20.8,7,20.5V16c0-0.6-0.4-1-1-1H4c-0.6,0-1,0.4-1,1v4.5C3,20.8,2.8,21,2.5,21H1c-0.6,0-1,0.4-1,1v2c0,0.6,0.4,1,1,1h24  C25.6,25,26,24.6,26,24z"/>
</svg>
