<?xml version='1.0' encoding='iso-8859-1'?>
<svg version="1.1" xmlns="http://www.w3.org/2000/svg" viewBox="0 0 26.064 26.064" xmlns:xlink="http://www.w3.org/1999/xlink" enable-background="new 0 0 26.064 26.064">
  <path d="m20.522,5.032c-0.1,0-0.1,0-0.2,0-0.2,0-0.4-0.2-0.5-0.4-0.6-2.6-3-4.6-5.8-4.6-2.5,0-4.6,1.5-5.5,3.7-0.1,0.2-0.3,0.3-0.5,0.3-2.4,0-4.3,1.6-4.9,3.8 0,0.2-0.2,0.3-0.3,0.4-1.8,0.6-3,2.3-2.8,4.4 0.3,2 2.1,3.4 4.1,3.4h4.5c0.4,0 0.6,0.4 0.5,0.7l-1.6,3.9c-0.3,0.7 0.2,1.4 0.9,1.4h3.8c0.4,0 0.6,0.4 0.5,0.7l-.3,1.2c-0.2,0.5 0,1.1 0.6,1.3l1.9,.7c0.1,0 0.2,0.1 0.4,0.1 0.4,0 0.8-0.2 0.9-0.6l2.2-6c0.3-0.7-0.2-1.4-0.9-1.4h-3.8c-0.4,0-0.6-0.4-0.5-0.7l.4-1c0.1-0.2 0.3-0.3 0.5-0.3h3.4 3c3.6,0 6.4-3.4 5.3-7.2-0.7-2.3-2.9-3.8-5.3-3.8zm0,7h-3-9-2.6c-0.1,0-0.3-0.1-0.4-0.2-0.2-0.2-0.2-0.5 0.1-0.7 0.7-0.6 1.2-1.4 1.4-2.4 0.1-0.4 0.4-0.8 1-0.8 1.8,0 3.5-1.1 4.2-2.8 0.3-0.7 1-1.2 1.8-1.2 0.9,0 1.7,0.6 1.9,1.5 0.5,2 2.3,3.5 4.4,3.5h0.1 0.1c0.8,0 1.5,0.7 1.5,1.5-3.55271e-15,0.9-0.7,1.6-1.5,1.6z"/>
</svg>
