<?xml version='1.0' encoding='iso-8859-1'?>
<svg version="1.1" xmlns="http://www.w3.org/2000/svg" viewBox="0 0 26.4 26.4" xmlns:xlink="http://www.w3.org/1999/xlink" enable-background="new 0 0 26.4 26.4">
  <g>
    <circle cx="18.4" cy="8" r="2"/>
    <path d="M25.4,0H14c-0.3,0-0.5,0.1-0.7,0.3l-13,13c-0.4,0.4-0.4,1,0,1.4l11.4,11.4c0.4,0.4,1,0.4,1.4,0l13-13   c0.2-0.2,0.3-0.4,0.3-0.7V1C26.4,0.4,26,0,25.4,0z M22.4,11c0,0.1-0.1,0.3-0.1,0.4l-9.5,9.5c-0.2,0.2-0.5,0.2-0.7,0l-6.5-6.5   c-0.2-0.2-0.2-0.5,0-0.7l9.5-9.5c0.1-0.1,0.2-0.1,0.4-0.1H22c0.3,0,0.5,0.2,0.5,0.5V11H22.4z"/>
  </g>
</svg>
