<?xml version='1.0' encoding='iso-8859-1'?>
<svg version="1.1" xmlns="http://www.w3.org/2000/svg" viewBox="0 0 26.2 26.2" xmlns:xlink="http://www.w3.org/1999/xlink" enable-background="new 0 0 26.2 26.2">
  <path d="m25,11h-0.8c-0.2,0-0.4-0.2-0.5-0.4-0.4-2-1.5-3.9-3-5.4s-3.4-2.5-5.4-3c-0.2-0.1-0.4-0.2-0.4-0.5v-0.7c0-0.6-0.4-1-1-1h-1-1c-0.6,0-1,0.4-1,1v0.8c0,0.2-0.2,0.4-0.4,0.5-2,0.4-3.9,1.5-5.4,3s-2.5,3.4-3,5.4c-0.1,0.2-0.2,0.4-0.5,0.4h-0.6c-0.6,0-1,0.4-1,1v1 1c0,0.6 0.4,1 1,1h0.8c0.2,0 0.4,0.2 0.5,0.4 0.4,2 1.5,3.9 3,5.4s3.4,2.5 5.4,3c0.2,0.1 0.4,0.2 0.4,0.5v0.8c0,0.6 0.4,1 1,1h1 1c0.6,0 1-0.4 1-1v-0.8c0-0.2 0.2-0.4 0.4-0.5 2-0.4 3.9-1.5 5.4-3s2.5-3.4 3-5.4c0.1-0.2 0.2-0.4 0.5-0.4h0.8c0.6,0 1-0.4 1-1v-1-1c-0.2-0.7-0.6-1.1-1.2-1.1zm-6,4c0.1,0 0.1,0 0.2,0 0.3,0.1 0.4,0.4 0.3,0.7-0.3,0.8-0.9,1.6-1.5,2.3-0.7,0.7-1.4,1.2-2.3,1.5-0.3,0.1-0.5,0-0.7-0.3 0-0.1 0-0.1 0-0.2 0-0.6-0.4-1-1-1h-1-1c-0.6,0-1,0.4-1,1 0,0.1 0,0.1 0,0.2-0.1,0.3-0.4,0.4-0.7,0.3-0.8-0.3-1.6-0.9-2.3-1.5-0.7-0.7-1.2-1.4-1.5-2.3-0.1-0.3 0-0.5 0.3-0.7 0.1,0 0.1,0 0.2,0 0.6,0 1-0.4 1-1v-1-1c0-0.6-0.4-1-1-1-0.1,0-0.1,0-0.2,0-0.3-0.1-0.4-0.4-0.3-0.7 0.3-0.8 0.9-1.6 1.5-2.3 0.7-0.7 1.4-1.2 2.3-1.5 0.3-0.1 0.5,0 0.7,0.3 0,0.1 0,0.1 0,0.2 0,0.6 0.4,1 1,1h1 1c0.6,0 1-0.4 1-1 0-0.1 0-0.1 0-0.2 0.1-0.3 0.4-0.4 0.7-0.3 0.8,0.3 1.6,0.9 2.3,1.5 0.7,0.7 1.2,1.4 1.5,2.3 0.1,0.3 0,0.5-0.3,0.7-0.1,0-0.1,0-0.2,0-0.6,0-1,0.4-1,1v1 1c0,0.6 0.4,1 1,1z"/>
</svg>
