<?xml version='1.0' encoding='iso-8859-1'?>
<svg version="1.1" xmlns="http://www.w3.org/2000/svg" viewBox="0 0 26.2 26.2" xmlns:xlink="http://www.w3.org/1999/xlink" enable-background="new 0 0 26.2 26.2">
  <g>
    <path d="m17,.1c-3.7,0-6.9,2.2-8.3,5.4-0.7-0.3-1.5-0.4-2.2-0.4-3.6,0-6.5,2.9-6.5,6.5 0,2.9 1.9,5.4 4.6,6.2l0,0h0.1c0.2,0 0.4-0.1 0.5-0.4 0-0.1 0-0.2 0-0.3-0.1-0.3-0.2-0.7-0.2-1.1 0-0.6 0.2-1.1 0.5-1.6 0.1-0.2 0.1-0.5-0.1-0.7l0,0c-0.8-0.4-1.3-1.2-1.3-2.2-8.88178e-16-1.4 1.1-2.5 2.5-2.5 0.3,0 0.6,0.1 0.9,0.2 0.5,0.2 0.9,0.2 1.4,0.2 1.5,0 3-0.9 3.7-2.4 0.8-1.8 2.6-3 4.6-3 2.8,0 5,2.2 5,5 0,1.6-0.8,3.1-2,4-0.2,0.2-0.3,0.5-0.1,0.7 0,0 0,0 0,0.1l0,0 .2,.2c0.6,0.6 0.9,1.3 0.9,2.1 0,0.1 0,0.1 0,0.2l0,0c0,0.3 0.2,0.5 0.5,0.5 0.1,0 0.2,0 0.3-0.1l0,0 0,0c2.5-1.6 4.2-4.4 4.2-7.6-0.2-5-4.2-9-9.2-9z"/>
    <path d="m18.6,15.2l-4.9-4.9c-0.2-0.2-0.5-0.3-0.7-0.3s-0.5,0.1-0.7,0.3l-4.9,4.9-.1,.1c-0.2,0.2-0.3,0.4-0.3,0.7s0.1,0.5 0.3,0.7l1.4,1.4c0.4,0.4 1,0.4 1.4,0 0.2-0.2 0.5-0.2 0.7,0 0.1,0.1 0.1,0.2 0.1,0.4v6.6c0,0.6 0.4,1 1,1h2c0.6,0 1-0.4 1-1v-6.6c0-0.1 0.1-0.3 0.1-0.4 0.2-0.2 0.5-0.2 0.7,0 0.4,0.4 1,0.4 1.4,0l1.4-1.4c0.2-0.2 0.3-0.4 0.3-0.7s-0.1-0.5-0.3-0.7l.1-.1z"/>
  </g>
</svg>
