<?xml version='1.0' encoding='iso-8859-1'?>
<svg version="1.1" xmlns="http://www.w3.org/2000/svg" viewBox="0 0 26 26" xmlns:xlink="http://www.w3.org/1999/xlink" enable-background="new 0 0 26 26">
  <path d="M22.7,9.3l-9-9C13.5,0.1,13.3,0,13,0s-0.5,0.1-0.7,0.3l-9,9C3.1,9.5,3,9.7,3,10s0.1,0.5,0.3,0.7l1.4,1.4  c0.4,0.4,1,0.4,1.4,0l4-4C10.4,7.8,11,8,11,8.5V25c0,0.6,0.4,1,1,1h2c0.6,0,1-0.4,1-1V8.4C15,8,15.5,7.7,15.9,8l4,4  c0.4,0.4,1,0.4,1.4,0l1.4-1.4c0.2-0.2,0.3-0.4,0.3-0.7C23,9.7,22.9,9.5,22.7,9.3z"/>
</svg>
