<?xml version='1.0' encoding='iso-8859-1'?>
<svg version="1.1" xmlns="http://www.w3.org/2000/svg" viewBox="0 0 25.9 25.9" xmlns:xlink="http://www.w3.org/1999/xlink" enable-background="new 0 0 25.9 25.9">
  <path d="m18.05,12.7c-0.3-0.1-0.4-0.4-0.3-0.6 0-0.1 0.1-0.1 0.1-0.2 1.3-1.3 2.1-3 2.1-4.9 0-3.9-3.1-7-7-7s-7,3.1-7,7c0,1.9 0.8,3.7 2.1,4.9 0.1,0.1 0.1,0.1 0.1,0.2 0.1,0.3 0,0.5-0.3,0.6-5.3,1.9-5.9,7-5.9,12.2 0,0.6 0.4,1 1,1h2c0.6,0 1-0.4 1-1 0-6.9 1-9 7-9s7,2.1 7,9c0,0.6 0.4,1 1,1h2c0.6,0 1-0.4 1-1-3.55271e-15-5.2-0.6-10.3-5.9-12.2zm-5.1-2.8c-1.7,0-3-1.3-3-3s1.3-3 3-3 3,1.3 3,3-1.3,3-3,3z"/>
</svg>
