<?xml version='1.0' encoding='iso-8859-1'?>
<svg version="1.1" xmlns="http://www.w3.org/2000/svg" viewBox="0 0 26.1 26.1" xmlns:xlink="http://www.w3.org/1999/xlink" enable-background="new 0 0 26.1 26.1">
  <path d="M24.1,2.6c0-0.1,0-0.3-0.1-0.4l-2.1-2.1C21.8,0,21.7,0,21.5,0s-0.3,0-0.4,0.1l-1,1l-6.7,6.7c-0.2,0.2-0.5,0.2-0.7,0L6,1.1  l-1-1C4.9,0,4.8,0,4.6,0C4.5,0,4.3,0,4.2,0.1L2.1,2.2C2,2.3,2,2.4,2,2.6C2,2.7,2,2.9,2.1,3l1,1l5.2,5.2c0.3,0.3,0.1,0.9-0.4,0.9h-3  c-0.6,0-1,0.4-1,1v2c0,0.6,0.4,1,1,1h5.5c0.3,0,0.5,0.2,0.5,0.5v3c0,0.3-0.2,0.5-0.5,0.5H5.1c-0.6,0-1,0.4-1,1v2c0,0.6,0.4,1,1,1  h5.5c0.3,0,0.5,0.2,0.5,0.5v2.5c0,0.6,0.4,1,1,1h2c0.6,0,1-0.4,1-1v-2.5c0-0.3,0.2-0.5,0.5-0.5h5.5c0.6,0,1-0.4,1-1v-2  c0-0.6-0.4-1-1-1h-5.5c-0.3,0-0.5-0.2-0.5-0.5v-3c0-0.3,0.2-0.5,0.5-0.5h5.5c0.6,0,1-0.4,1-1v-2c0-0.6-0.4-1-1-1h-3  c-0.4,0-0.7-0.5-0.4-0.9L22.9,4l1-1C24.1,2.9,24.1,2.7,24.1,2.6z"/>
</svg>
